Muli-300-Light.ufo
<glyph name="exclam" format="1">
  <advance width="512.6006"/>
  <unicode hex="0021"/>
  <outline>
    <contour>
      <point x="159.1691" y="0.0" type="line"/>
      <point x="353.92" y="0.0" type="line"/>
      <point x="353.92" y="191.0265" type="line"/>
      <point x="159.1691" y="191.0265" type="line"/>
    </contour>
    <contour>
      <point x="217.2611" y="369.8745" type="line"/>
      <point x="299.2096" y="369.8745" type="line"/>
      <point x="343.3097" y="1456.0" type="line"/>
      <point x="173.161" y="1456.0" type="line"/>
    </contour>
  </outline>
</glyph>
<glyph name="quotedbl" format="1">
  <advance width="850.988"/>
  <unicode hex="0022"/>
  <outline>
    <contour>
      <point x="233.7904" y="965.56275" type="line"/>
      <point x="197.08" y="1456.0" type="line"/>
      <point x="363.6699" y="1456.0" type="line"/>
      <point x="345.2491" y="965.56275" type="line"/>
    </contour>
    <contour>
      <point x="520.6699" y="965.56275" type="line"/>
      <point x="483.9595" y="1456.0" type="line"/>
      <point x="650.5494" y="1456.0" type="line"/>
      <point x="631.8309" y="965.56275" type="line"/>
    </contour>
  </outline>
</glyph>
<glyph name="numbersign" format="1">
  <advance width="1348.2789"/>
  <unicode hex="0023"/>
  <outline>
    <contour>
      <point x="277.5698" y="75.918375" type="line"/>
      <point x="360.0204" y="493.268125" type="line"/>
      <point x="104.3492" y="493.268125" type="line"/>
      <point x="115.54" y="611.781375" type="line"/>
      <point x="382.2802" y="611.781375" type="line"/>
      <point x="403.1192" y="729.58575"/>
      <point x="409.5711" y="771.939"/>
      <point x="431.6009" y="889.743375" type="curve"/>
      <point x="172.1503" y="889.743375" type="line"/>
      <point x="186.0204" y="1005.63875" type="line"/>
      <point x="450.9906" y="1005.63875" type="line"/>
      <point x="528.7389" y="1410.332625" type="line"/>
      <point x="664.1908" y="1410.332625" type="line"/>
      <point x="589.4195" y="1005.63875" type="line"/>
      <point x="868.5008" y="1005.63875" type="line"/>
      <point x="942.379" y="1410.332625" type="line"/>
      <point x="1077.8309" y="1410.332625" type="line"/>
      <point x="1001.8688" y="1005.63875" type="line"/>
      <point x="1247.6009" y="1005.63875" type="line"/>
      <point x="1231.8607" y="889.743375" type="line"/>
      <point x="980.9906" y="889.743375" type="line"/>
      <point x="930.4791" y="611.781375" type="line"/>
      <point x="1182.4791" y="611.781375" type="line"/>
      <point x="1166.7389" y="493.268125" type="line"/>
      <point x="910.8986" y="493.268125" type="line"/>
      <point x="829.6388" y="75.918375" type="line"/>
      <point x="695.08" y="75.918375" type="line"/>
      <point x="772.4697" y="493.268125" type="line"/>
      <point x="493.0907" y="493.268125" type="line"/>
      <point x="413.3194" y="75.918375" type="line"/>
    </contour>
    <contour>
      <point x="512.9689" y="611.781375" type="line"/>
      <point x="795.9203" y="611.781375" type="line"/>
      <point x="846.7295" y="889.743375" type="line"/>
      <point x="567.3505" y="889.743375" type="line"/>
    </contour>
  </outline>
</glyph>
<glyph name="percent" format="1">
  <advance width="1667.4801"/>
  <unicode hex="0025"/>
  <outline>
    <contour>
      <point x="413.7496" y="855.038" type="curve" smooth="yes"/>
      <point x="78.1232" y="855.038"/>
      <point x="-56.8171" y="975.48675"/>
      <point x="-56.8171" y="1118.52475" type="curve" smooth="yes"/>
      <point x="-56.8171" y="1255.344125"/>
      <point x="67.2154" y="1386.792875"/>
      <point x="414.9404" y="1386.792875" type="curve" smooth="yes"/>
      <point x="757.6045" y="1386.792875"/>
      <point x="881.637" y="1269.306125"/>
      <point x="881.637" y="1123.469625" type="curve" smooth="yes"/>
      <point x="881.637" y="987.994375"/>
      <point x="749.376" y="855.038"/>
    </contour>
    <contour>
      <point x="408.391" y="751.868875" type="curve" smooth="yes"/>
      <point x="998.5776" y="751.868875"/>
      <point x="1341.7829" y="924.119875"/>
      <point x="1341.7829" y="1122.306125" type="curve" smooth="yes"/>
      <point x="1341.7829" y="1326.0"/>
      <point x="1015.5312" y="1488.7985"/>
      <point x="416.1312" y="1488.7985" type="curve" smooth="yes"/>
      <point x="-176.7194" y="1488.7985"/>
      <point x="-518.4515" y="1314.655875"/>
      <point x="-518.4515" y="1117.36125" type="curve" smooth="yes"/>
      <point x="-518.4515" y="916.848"/>
      <point x="-187.1542" y="751.868875"/>
    </contour>
    <contour>
      <point x="323.3301" y="0.0" type="line"/>
      <point x="-158.2565" y="-1150.24" type="line"/>
      <point x="1363.5695" y="1456.0" type="line"/>
      <point x="1843.8584" y="2606.24" type="line"/>
    </contour>
    <contour>
      <point x="1256.4098" y="74.606375" type="curve" smooth="yes"/>
      <point x="920.7834" y="74.606375"/>
      <point x="787.0339" y="195.055125"/>
      <point x="787.0339" y="335.47525" type="curve" smooth="yes"/>
      <point x="787.0339" y="472.294625"/>
      <point x="908.3871" y="606.36125"/>
      <point x="1258.7914" y="606.36125" type="curve" smooth="yes"/>
      <point x="1602.6463" y="606.36125"/>
      <point x="1723.9995" y="490.328875"/>
      <point x="1723.9995" y="344.492375" type="curve" smooth="yes"/>
      <point x="1723.9995" y="209.017125"/>
      <point x="1593.5247" y="74.606375"/>
    </contour>
    <contour>
      <point x="1252.5397" y="-28.56275" type="curve" smooth="yes"/>
      <point x="1842.7263" y="-28.56275"/>
      <point x="2185.9316" y="138.382125"/>
      <point x="2185.9316" y="343.038" type="curve" smooth="yes"/>
      <point x="2185.9316" y="550.8745"/>
      <point x="1859.6799" y="709.530375"/>
      <point x="1260.2799" y="709.530375" type="curve" smooth="yes"/>
      <point x="667.4293" y="709.530375"/>
      <point x="325.3995" y="540.693875"/>
      <point x="325.3995" y="336.63875" type="curve" smooth="yes"/>
      <point x="325.3995" y="131.982875"/>
      <point x="659.6738" y="-28.56275"/>
    </contour>
  </outline>
</glyph>
<glyph name="ampersand" format="1">
  <advance width="1503.4681"/>
  <unicode hex="0026"/>
  <outline>
    <contour>
      <point x="629.1908" y="-20.60075" type="curve" smooth="yes"/>
      <point x="350.6103" y="-20.60075"/>
      <point x="141.8999" y="134.92775"/>
      <point x="141.8999" y="403.420125" type="curve" smooth="yes"/>
      <point x="141.8999" y="628.60075"/>
      <point x="308.0596" y="736.256625"/>
      <point x="479.7389" y="838.8745" type="curve"/>
      <point x="385.7389" y="942.8745"/>
      <point x="310.4493" y="1050.344125"/>
      <point x="310.4493" y="1194.032375" type="curve" smooth="yes"/>
      <point x="310.4493" y="1382.289"/>
      <point x="452.0988" y="1479.72625"/>
      <point x="628.1299" y="1479.72625" type="curve" smooth="yes"/>
      <point x="791.1001" y="1479.72625"/>
      <point x="956.9404" y="1391.289"/>
      <point x="956.9404" y="1199.868875" type="curve" smooth="yes"/>
      <point x="956.9404" y="1038.52475"/>
      <point x="812.8497" y="906.017125"/>
      <point x="663.7509" y="820.180625" type="curve"/>
      <point x="1063.0609" y="384.901" type="line"/>
      <point x="1147.4804" y="510.720375"/>
      <point x="1210.7389" y="710.279375"/>
      <point x="1210.7389" y="876.6615" type="curve"/>
      <point x="1342.0013" y="861.9125" type="line"/>
      <point x="1331.5818" y="659.693875"/>
      <point x="1265.5818" y="440.80225"/>
      <point x="1155.5209" y="285.420125" type="curve"/>
      <point x="1181.3706" y="260.502"/>
      <point x="1302.7901" y="118.51325"/>
      <point x="1470.0094" y="82.731875" type="curve"/>
      <point x="1371.6793" y="-4.492375" type="line"/>
      <point x="1263.3884" y="12.56275"/>
      <point x="1095.4911" y="167.568625"/>
      <point x="1075.1908" y="185.469625" type="curve"/>
      <point x="968.1908" y="63.108375"/>
      <point x="830.9919" y="-20.60075"/>
    </contour>
    <contour>
      <point x="625.1299" y="106.0265" type="curve" smooth="yes"/>
      <point x="798.3194" y="106.0265"/>
      <point x="900.2504" y="174.043625"/>
      <point x="996.4101" y="278.294625" type="curve"/>
      <point x="557.069" y="749.667375" type="line"/>
      <point x="413.299" y="670.705375"/>
      <point x="293.6508" y="586.142625"/>
      <point x="293.6508" y="405.8745" type="curve" smooth="yes"/>
      <point x="293.6508" y="232.169125"/>
      <point x="423.7496" y="106.0265"/>
    </contour>
    <contour>
      <point x="583.1001" y="894.9885" type="curve"/>
      <point x="697.0" y="962.332625"/>
      <point x="822.609" y="1068.055125"/>
      <point x="822.609" y="1189.868875" type="curve" smooth="yes"/>
      <point x="822.609" y="1312.73775"/>
      <point x="721.6482" y="1362.644625"/>
      <point x="633.069" y="1362.644625" type="curve" smooth="yes"/>
      <point x="528.299" y="1362.644625"/>
      <point x="442.7198" y="1304.57425"/>
      <point x="442.7198" y="1190.48675" type="curve" smooth="yes"/>
      <point x="442.7198" y="1082.781375"/>
      <point x="494.2002" y="981.67675"/>
    </contour>
  </outline>
</glyph>
<glyph name="quotesingle" format="1">
  <advance width="526.8079"/>
  <unicode hex="0027"/>
  <outline>
    <contour>
      <point x="220.0596" y="976.175" type="line"/>
      <point x="179.8688" y="1456.0" type="line"/>
      <point x="341.6197" y="1456.0" type="line"/>
      <point x="319.4208" y="976.175" type="line"/>
    </contour>
  </outline>
</glyph>
<glyph name="parenleft" format="1">
  <advance width="600.1095"/>
  <unicode hex="0028"/>
  <outline>
    <contour>
      <point x="415.931" y="-174.781375" type="line"/>
      <point x="262.4804" y="60.655875"/>
      <point x="150.5792" y="350.857375"/>
      <point x="150.5792" y="661.218625" type="curve" smooth="yes"/>
      <point x="150.5792" y="983.962"/>
      <point x="247.2896" y="1251.8365"/>
      <point x="414.4804" y="1516.0" type="curve"/>
      <point x="551.3003" y="1516.0" type="line"/>
      <point x="385.8497" y="1250.944875"/>
      <point x="291.9106" y="973.0875"/>
      <point x="291.9106" y="665.617875" type="curve" smooth="yes"/>
      <point x="291.9106" y="380.47525"/>
      <point x="392.3003" y="74.492375"/>
      <point x="552.4911" y="-174.781375" type="curve"/>
    </contour>
  </outline>
</glyph>
<glyph name="parenright" format="1">
  <advance width="600.1095"/>
  <unicode hex="0029"/>
  <outline>
    <contour>
      <point x="183.69" y="1496.0" type="line"/>
      <point x="337.1406" y="1260.56275"/>
      <point x="449.3395" y="970.36125"/>
      <point x="449.3395" y="660.0" type="curve" smooth="yes"/>
      <point x="449.3395" y="337.256625"/>
      <point x="352.3314" y="69.382125"/>
      <point x="185.1406" y="-194.781375" type="curve"/>
      <point x="48.3207" y="-194.781375" type="line"/>
      <point x="213.7713" y="70.27375"/>
      <point x="307.7104" y="348.131125"/>
      <point x="307.7104" y="655.60075" type="curve" smooth="yes"/>
      <point x="307.7104" y="940.743375"/>
      <point x="207.3207" y="1246.72625"/>
      <point x="47.1299" y="1496.0" type="curve"/>
    </contour>
  </outline>
</glyph>
<glyph name="asterisk" format="1">
  <advance width="1150.7376"/>
  <unicode hex="002A"/>
  <outline>
    <contour>
      <point x="746.8986" y="755.606625" type="line"/>
      <point x="588.8296" y="1029.58575" type="line"/>
      <point x="437.31" y="765.78725" type="line"/>
      <point x="328.3994" y="828.77575" type="line"/>
      <point x="507.7593" y="1071.956375" type="line"/>
      <point x="242.3696" y="1149.48675" type="line"/>
      <point x="277.1192" y="1268.256625" type="line"/>
      <point x="537.5996" y="1150.655875" type="line"/>
      <point x="507.5996" y="1458.617875" type="line"/>
      <point x="634.931" y="1458.617875" type="line"/>
      <point x="630.8309" y="1150.655875" type="line"/>
      <point x="859.1597" y="1268.256625" type="line"/>
      <point x="918.3207" y="1149.48675" type="line"/>
      <point x="666.0298" y="1071.956375" type="line"/>
      <point x="858.1908" y="816.431625" type="line"/>
    </contour>
  </outline>
</glyph>
<glyph name="plus" format="1">
  <advance width="1159.4383"/>
  <unicode hex="002B"/>
  <outline>
    <contour>
      <point x="513.3207" y="119.81375" type="line"/>
      <point x="513.3207" y="549.9735" type="line"/>
      <point x="125.5805" y="549.9735" type="line"/>
      <point x="125.5805" y="673.382125" type="line"/>
      <point x="512.9391" y="673.382125" type="line"/>
      <point x="512.9391" y="1078.39925" type="line"/>
      <point x="643.3314" y="1078.39925" type="line"/>
      <point x="643.3314" y="673.382125" type="line"/>
      <point x="1033.5601" y="673.382125" type="line"/>
      <point x="1033.5601" y="549.9735" type="line"/>
      <point x="645.0107" y="549.9735" type="line"/>
      <point x="645.0107" y="119.81375" type="line"/>
    </contour>
  </outline>
</glyph>
<glyph name="comma" format="1">
  <advance width="448.5601"/>
  <unicode hex="002C"/>
  <outline>
    <contour>
      <point x="84.5792" y="-251.344125" type="line"/>
      <point x="190.2206" y="193.26225" type="line"/>
      <point x="354.3003" y="193.26225" type="line"/>
      <point x="195.46" y="-251.344125" type="line"/>
    </contour>
  </outline>
</glyph>
<glyph name="hyphen" format="1">
  <advance width="638.2015"/>
  <unicode hex="002D"/>
  <outline>
    <contour>
      <point x="66.1218" y="503.431625" type="line"/>
      <point x="66.1218" y="621.31175" type="line"/>
      <point x="572.0797" y="621.31175" type="line"/>
      <point x="572.0797" y="503.431625" type="line"/>
    </contour>
  </outline>
</glyph>
<glyph name="period" format="1">
  <advance width="546.5494"/>
  <unicode hex="002E"/>
  <outline>
    <contour>
      <point x="177.3492" y="0.0" type="line"/>
      <point x="177.3492" y="196.26225" type="line"/>
      <point x="375.9702" y="196.26225" type="line"/>
      <point x="375.9702" y="0.0" type="line"/>
    </contour>
  </outline>
</glyph>
<glyph name="slash" format="1">
  <advance width="1352.8276"/>
  <unicode hex="002F"/>
  <outline>
    <contour>
      <point x="352.3997" y="-31.12525" type="line"/>
      <point x="839.5186" y="1456.0" type="line"/>
      <point x="993.1694" y="1456.0" type="line"/>
      <point x="502.539" y="-31.12525" type="line"/>
    </contour>
  </outline>
</glyph>
<glyph name="zero" format="1">
  <advance width="1204.46"/>
  <unicode hex="0030"/>
  <outline>
    <contour>
      <point x="611.1001" y="108.081625" type="curve" smooth="yes"/>
      <point x="845.4804" y="108.081625"/>
      <point x="916.7091" y="376.404875"/>
      <point x="916.7091" y="726.655875" type="curve" smooth="yes"/>
      <point x="916.7091" y="1097.69975"/>
      <point x="842.6103" y="1349.3005"/>
      <point x="609.9093" y="1349.3005" type="curve" smooth="yes"/>
      <point x="372.5899" y="1349.3005"/>
      <point x="280.0107" y="1097.53625"/>
      <point x="280.0107" y="727.819375" type="curve" smooth="yes"/>
      <point x="280.0107" y="377.568375"/>
      <point x="373.7807" y="108.081625"/>
    </contour>
    <contour>
      <point x="608.2909" y="-23.0" type="curve" smooth="yes"/>
      <point x="279.4817" y="-23.0"/>
      <point x="124.0" y="291.39925"/>
      <point x="124.0" y="727.655875" type="curve" smooth="yes"/>
      <point x="124.0" y="1193.655875"/>
      <point x="280.161" y="1483.0"/>
      <point x="610.2909" y="1483.0" type="curve" smooth="yes"/>
      <point x="940.6116" y="1483.0"/>
      <point x="1080.46" y="1196.23575"/>
      <point x="1080.46" y="726.492375" type="curve" smooth="yes"/>
      <point x="1080.46" y="288.454375"/>
      <point x="940.4208" y="-23.0"/>
    </contour>
  </outline>
</glyph>
<glyph name="one" format="1">
  <advance width="1204.46"/>
  <unicode hex="0031"/>
  <outline>
    <contour>
      <point x="275.5196" y="0.0" type="line"/>
      <point x="275.5196" y="132.370625" type="line"/>
      <point x="559.0609" y="132.370625" type="line"/>
      <point x="559.0609" y="1280.137" type="line"/>
      <point x="464.8403" y="1224.77575"/>
      <point x="357.0311" y="1185.0115"/>
      <point x="258.1299" y="1144.230125" type="curve"/>
      <point x="258.1299" y="1283.530375" type="line"/>
      <point x="359.069" y="1319.693875"/>
      <point x="521.8999" y="1399.60075"/>
      <point x="610.8999" y="1456.0" type="curve"/>
      <point x="710.5601" y="1456.0" type="line"/>
      <point x="710.5601" y="132.861125" type="line"/>
      <point x="976.4302" y="132.861125" type="line"/>
      <point x="976.4302" y="0.0" type="line"/>
    </contour>
  </outline>
</glyph>
<glyph name="three" format="1">
  <advance width="1204.46"/>
  <unicode hex="0033"/>
  <outline>
    <contour>
      <point x="550.5899" y="-23.0" type="curve" smooth="yes"/>
      <point x="377.9906" y="-23.0"/>
      <point x="210.3803" y="54.114"/>
      <point x="187.1597" y="68.076" type="curve"/>
      <point x="223.8403" y="194.355375" type="line"/>
      <point x="304.2193" y="152.469375"/>
      <point x="420.3505" y="108.081625"/>
      <point x="561.5196" y="108.081625" type="curve" smooth="yes"/>
      <point x="749.5805" y="108.081625"/>
      <point x="903.1895" y="215.6615"/>
      <point x="903.1895" y="399.47525" type="curve" smooth="yes"/>
      <point x="903.1895" y="613.68825"/>
      <point x="754.609" y="702.268125"/>
      <point x="511.9297" y="703.830875" type="curve" smooth="yes"/>
      <point x="435.3194" y="704.44875" type="line"/>
      <point x="433.3194" y="832.076" type="line"/>
      <point x="491.7091" y="832.076" type="line" smooth="yes"/>
      <point x="709.069" y="832.076"/>
      <point x="872.1205" y="894.020875"/>
      <point x="872.1205" y="1111.507625" type="curve" smooth="yes"/>
      <point x="872.1205" y="1274.557125"/>
      <point x="721.77" y="1355.69975"/>
      <point x="555.3897" y="1355.69975" type="curve" smooth="yes"/>
      <point x="392.069" y="1355.69975"/>
      <point x="274.7415" y="1288.880375"/>
      <point x="195.6508" y="1206.431625" type="curve"/>
      <point x="123.9702" y="1298.731875" type="line"/>
      <point x="209.8497" y="1423.655875"/>
      <point x="388.7402" y="1483.0"/>
      <point x="570.4208" y="1483.0" type="curve" smooth="yes"/>
      <point x="791.9404" y="1483.0"/>
      <point x="1015.391" y="1351.43725"/>
      <point x="1015.391" y="1114.180625" type="curve" smooth="yes"/>
      <point x="1015.391" y="926.530375"/>
      <point x="916.7198" y="819.68825"/>
      <point x="757.4898" y="766.1635" type="curve"/>
      <point x="943.5588" y="725.218625"/>
      <point x="1053.2611" y="598.962"/>
      <point x="1053.2611" y="398.492375" type="curve" smooth="yes"/>
      <point x="1053.2611" y="138.0"/>
      <point x="837.4898" y="-23.0"/>
    </contour>
  </outline>
</glyph>
<glyph name="four" format="1">
  <advance width="1204.46"/>
  <unicode hex="0034"/>
  <outline>
    <contour>
      <point x="753.9229" y="0.0" type="line"/>
      <point x="753.9229" y="388.39925" type="line"/>
      <point x="103.1299" y="388.39925" type="line"/>
      <point x="103.1299" y="527.49425" type="line"/>
      <point x="684.1759" y="1456.0" type="line"/>
      <point x="908.5669" y="1456.0" type="line"/>
      <point x="908.5669" y="510.40675" type="line"/>
      <point x="1118.3003" y="510.40675" type="line"/>
      <point x="1118.3003" y="388.39925" type="line"/>
      <point x="907.2083" y="388.39925" type="line"/>
      <point x="907.2083" y="0.0" type="line"/>
    </contour>
    <contour>
      <point x="256.0878" y="510.40675" type="line"/>
      <point x="753.0528" y="510.40675" type="line"/>
      <point x="753.0528" y="1311.891875" type="line"/>
      <point x="622.7875" y="1104.6655" type="line"/>
    </contour>
  </outline>
</glyph>
<glyph name="seven" format="1">
  <advance width="1204.46"/>
  <unicode hex="0037"/>
  <outline>
    <contour>
      <point x="369.9297" y="0.0" type="line"/>
      <point x="914.7998" y="1325.355625" type="line"/>
      <point x="178.0907" y="1325.355625" type="line"/>
      <point x="178.0907" y="1456.0" type="line"/>
      <point x="1081.2692" y="1456.0" type="line"/>
      <point x="1081.2692" y="1344.137" type="line"/>
      <point x="534.2611" y="0.0" type="line"/>
    </contour>
  </outline>
</glyph>
<glyph name="eight" format="1">
  <advance width="1205.5669"/>
  <unicode hex="0038"/>
  <outline>
    <contour>
      <point x="601.31795" y="-23.0" type="curve" smooth="yes"/>
      <point x="360.82815" y="-23.0"/>
      <point x="132.40865" y="116.819375"/>
      <point x="132.40865" y="370.47525" type="curve" smooth="yes"/>
      <point x="132.40865" y="560.617875"/>
      <point x="243.01895" y="702.344125"/>
      <point x="451.13945" y="762.8365" type="curve"/>
      <point x="270.20975" y="816.256625"/>
      <point x="167.46955" y="941.8365"/>
      <point x="167.46955" y="1117.579875" type="curve" smooth="yes"/>
      <point x="167.46955" y="1347.23575"/>
      <point x="363.27875" y="1483.0"/>
      <point x="603.05815" y="1483.0" type="curve" smooth="yes"/>
      <point x="837.93765" y="1483.0"/>
      <point x="1039.47895" y="1348.7985"/>
      <point x="1039.47895" y="1119.924" type="curve" smooth="yes"/>
      <point x="1039.47895" y="944.344125"/>
      <point x="934.99855" y="819.055125"/>
      <point x="754.93895" y="763.617875" type="curve"/>
      <point x="967.02835" y="702.017125"/>
      <point x="1073.15825" y="563.579875"/>
      <point x="1073.15825" y="372.492375" type="curve" smooth="yes"/>
      <point x="1073.15825" y="118.673"/>
      <point x="850.76855" y="-23.0"/>
    </contour>
    <contour>
      <point x="602.18805" y="105.46375" type="curve" smooth="yes"/>
      <point x="790.18675" y="105.46375"/>
      <point x="923.33835" y="205.005625"/>
      <point x="923.33835" y="383.47525" type="curve" smooth="yes"/>
      <point x="923.33835" y="558.705375"/>
      <point x="792.30855" y="652.344125"/>
      <point x="600.63865" y="690.1255" type="curve"/>
      <point x="414.25835" y="651.72625"/>
      <point x="281.54925" y="555.289"/>
      <point x="281.54925" y="384.256625" type="curve" smooth="yes"/>
      <point x="281.54925" y="202.825"/>
      <point x="417.35715" y="105.46375"/>
    </contour>
    <contour>
      <point x="602.37885" y="832.31175" type="curve"/>
      <point x="791.36945" y="866.530375"/>
      <point x="896.20845" y="957.929625"/>
      <point x="896.20845" y="1111.180625" type="curve" smooth="yes"/>
      <point x="896.20845" y="1274.956375"/>
      <point x="759.88905" y="1362.099"/>
      <point x="602.56965" y="1362.099" type="curve" smooth="yes"/>
      <point x="449.66975" y="1362.099"/>
      <point x="311.41935" y="1273.720625"/>
      <point x="311.41935" y="1113.68825" type="curve" smooth="yes"/>
      <point x="311.41935" y="958.256625"/>
      <point x="416.25835" y="867.31175"/>
    </contour>
  </outline>
</glyph>
<glyph name="semicolon" format="1">
  <advance width="546.5494"/>
  <unicode hex="003B"/>
  <outline>
    <contour>
      <point x="109.2125" y="-251.344125" type="line"/>
      <point x="213.9378" y="193.26225" type="line"/>
      <point x="379.1244" y="193.26225" type="line"/>
      <point x="220.0933" y="-251.344125" type="line"/>
    </contour>
    <contour>
      <point x="153.2909" y="847.294625" type="line"/>
      <point x="153.2909" y="1043.556875" type="line"/>
      <point x="361.5899" y="1043.556875" type="line"/>
      <point x="361.5899" y="847.294625" type="line"/>
    </contour>
  </outline>
</glyph>
<glyph name="less" format="1">
  <advance width="1150.7101"/>
  <unicode hex="003C"/>
  <outline>
    <contour>
      <point x="931.2216" y="87.667375" type="line"/>
      <point x="75.1014" y="549.48675" type="line"/>
      <point x="75.1014" y="632.56275" type="line"/>
      <point x="936.7101" y="1045.043625" type="line"/>
      <point x="936.7101" y="907.743375" type="line"/>
      <point x="243.9916" y="584.962" type="line"/>
      <point x="931.2216" y="223.294625" type="line"/>
    </contour>
  </outline>
</glyph>
<glyph name="greater" format="1">
  <advance width="1150.0308"/>
  <unicode hex="003E"/>
  <outline>
    <contour>
      <point x="214.0" y="86.886" type="line"/>
      <point x="214.0" y="222.9505" type="line"/>
      <point x="900.23" y="550.63875" type="line"/>
      <point x="219.0" y="908.180625" type="line"/>
      <point x="219.0" y="1043.0265" type="line"/>
      <point x="1074.6317" y="587.131125" type="line"/>
      <point x="1074.6317" y="505.944875" type="line"/>
    </contour>
  </outline>
</glyph>
<glyph name="question" format="1">
  <advance width="1085.8377"/>
  <unicode hex="003F"/>
  <outline>
    <contour>
      <point x="366.609" y="358.169125" type="line"/>
      <point x="366.609" y="503.731875" type="line" smooth="yes"/>
      <point x="366.609" y="742.370625"/>
      <point x="759.1192" y="876.895375"/>
      <point x="759.1192" y="1126.72625" type="curve" smooth="yes"/>
      <point x="759.1192" y="1286.93925"/>
      <point x="632.6699" y="1351.3005"/>
      <point x="477.1597" y="1351.3005" type="curve" smooth="yes"/>
      <point x="352.6103" y="1351.3005"/>
      <point x="244.1286" y="1301.355625"/>
      <point x="196.3194" y="1274.57425" type="curve"/>
      <point x="196.3194" y="1409.218625" type="line"/>
      <point x="311.6294" y="1465.268125"/>
      <point x="439.8581" y="1476.43725"/>
      <point x="496.2896" y="1476.43725" type="curve" smooth="yes"/>
      <point x="744.77" y="1476.43725"/>
      <point x="905.5805" y="1363.218625"/>
      <point x="905.5805" y="1135.180625" type="curve" smooth="yes"/>
      <point x="905.5805" y="836.904090871"/>
      <point x="481.2909" y="695.38775"/>
      <point x="481.2909" y="478.617875" type="curve" smooth="yes"/>
      <point x="481.2909" y="358.169125" type="line"/>
    </contour>
    <contour>
      <point x="331.1205" y="-13.962" type="line"/>
      <point x="331.1205" y="182.30025" type="line"/>
      <point x="530.0392" y="182.30025" type="line"/>
      <point x="530.0392" y="-13.962" type="line"/>
    </contour>
  </outline>
</glyph>
<glyph name="at" format="1">
  <advance width="1737.7198"/>
  <unicode hex="0040"/>
  <outline>
    <contour>
      <point x="914.1001" y="-78.63875" type="curve" smooth="yes"/>
      <point x="1137.5805" y="-78.63875"/>
      <point x="1380.7091" y="-9.294625"/>
      <point x="1491.9702" y="138.792875" type="curve"/>
      <point x="1428.4506" y="197.72625" type="line"/>
      <point x="1311.8999" y="73.857375"/>
      <point x="1099.8403" y="20.294625"/>
      <point x="915.1312" y="20.294625" type="curve" smooth="yes"/>
      <point x="531.5222" y="20.294625"/>
      <point x="231.0405" y="258.72625"/>
      <point x="231.0405" y="689.52475" type="curve" smooth="yes"/>
      <point x="231.0405" y="1105.43725"/>
      <point x="549.3301" y="1373.994375"/>
      <point x="908.46" y="1373.994375" type="curve" smooth="yes"/>
      <point x="1269.6103" y="1373.994375"/>
      <point x="1518.2909" y="1121.18625"/>
      <point x="1518.2909" y="805.39925" type="curve" smooth="yes"/>
      <point x="1518.2909" y="580.48675"/>
      <point x="1397.0" y="349.857375"/>
      <point x="1237.1704" y="349.857375" type="curve" smooth="yes"/>
      <point x="1176.0107" y="349.857375"/>
      <point x="1153.9498" y="379.005625"/>
      <point x="1153.9498" y="431.749" type="curve" smooth="yes"/>
      <point x="1153.9498" y="497.617875"/>
      <point x="1173.1095" y="549.579875"/>
      <point x="1180.0107" y="577.825" type="curve" smooth="yes"/>
      <point x="1300.3991" y="1110.60075" type="line"/>
      <point x="1186.0907" y="1110.60075" type="line"/>
      <point x="1157.3505" y="990.076" type="line"/>
      <point x="1134.0907" y="1102.0"/>
      <point x="1023.8782" y="1144.56275"/>
      <point x="929.8092" y="1144.56275" type="curve" smooth="yes"/>
      <point x="698.4898" y="1144.56275"/>
      <point x="499.1597" y="885.71475"/>
      <point x="481.0" y="625.1635" type="curve" smooth="yes"/>
      <point x="465.5196" y="399.52475"/>
      <point x="622.4898" y="273.1255"/>
      <point x="775.6197" y="273.1255" type="curve" smooth="yes"/>
      <point x="884.4992" y="273.1255"/>
      <point x="1010.9715" y="352.1635"/>
      <point x="1062.2611" y="452.819375" type="curve"/>
      <point x="1062.2611" y="294.933375"/>
      <point x="1115.1704" y="252.8365"/>
      <point x="1238.0107" y="252.8365" type="curve" smooth="yes"/>
      <point x="1426.0418" y="252.8365"/>
      <point x="1629.0405" y="473.6615"/>
      <point x="1629.0405" y="800.39925" type="curve" smooth="yes"/>
      <point x="1629.0405" y="1192.891625"/>
      <point x="1313.2922" y="1477.055125"/>
      <point x="913.2611" y="1477.055125" type="curve" smooth="yes"/>
      <point x="494.0" y="1477.055125"/>
      <point x="108.6793" y="1172.673"/>
      <point x="108.6793" y="692.142625" type="curve" smooth="yes"/>
      <point x="108.6793" y="213.743375"/>
      <point x="467.0" y="-78.63875"/>
    </contour>
    <contour>
      <point x="781.9106" y="384.442875" type="curve" smooth="yes"/>
      <point x="670.4613" y="384.442875"/>
      <point x="598.9809" y="469.5855"/>
      <point x="598.9809" y="591.8365" type="curve" smooth="yes"/>
      <point x="598.9809" y="787.924"/>
      <point x="753.391" y="1050.2625"/>
      <point x="933.2909" y="1050.2625" type="curve" smooth="yes"/>
      <point x="1050.4804" y="1050.2625"/>
      <point x="1109.0298" y="948.81375"/>
      <point x="1109.0298" y="830.344125" type="curve" smooth="yes"/>
      <point x="1109.0298" y="609.256625"/>
      <point x="948.8105" y="384.442875"/>
    </contour>
  </outline>
</glyph>
<glyph name="C" format="1">
  <advance width="1362.5899"/>
  <unicode hex="0043"/>
  <outline>
    <contour>
      <point x="817.5196" y="-22.0" type="curve" smooth="yes"/>
      <point x="457.4885" y="-22.0"/>
      <point x="108.6793" y="207.9125"/>
      <point x="108.6793" y="709.8745" type="curve" smooth="yes"/>
      <point x="108.6793" y="1099.868625"/>
      <point x="348.7211" y="1481.8365"/>
      <point x="816.1908" y="1481.8365" type="curve" smooth="yes"/>
      <point x="1001.1597" y="1481.8365"/>
      <point x="1144.3207" y="1437.43725"/>
      <point x="1259.6806" y="1337.180625" type="curve"/>
      <point x="1199.8092" y="1234.918375" type="line"/>
      <point x="1107.8079" y="1306.557125"/>
      <point x="974.2206" y="1352.081875"/>
      <point x="832.3207" y="1352.081875" type="curve" smooth="yes"/>
      <point x="432.081" y="1352.081875"/>
      <point x="270.69" y="1012.332625"/>
      <point x="270.69" y="707.63875" type="curve" smooth="yes"/>
      <point x="270.69" y="323.19"/>
      <point x="501.0405" y="107.46375"/>
      <point x="822.1001" y="107.46375" type="curve" smooth="yes"/>
      <point x="969.069" y="107.46375"/>
      <point x="1106.069" y="156.644375"/>
      <point x="1240.3897" y="250.682375" type="curve"/>
      <point x="1291.6197" y="123.256625" type="line"/>
      <point x="1156.9702" y="29.56275"/>
      <point x="991.3288" y="-22.0"/>
    </contour>
  </outline>
</glyph>
<glyph name="E" format="1">
  <advance width="1113.8361"/>
  <unicode hex="0045"/>
  <outline>
    <contour>
      <point x="184.8552" y="0.0" type="line"/>
      <point x="184.8552" y="1456.0" type="line"/>
      <point x="1026.0865" y="1456.0" type="line"/>
      <point x="1026.0865" y="1323.754875" type="line"/>
      <point x="336.3544" y="1323.754875" type="line"/>
      <point x="336.3544" y="805.659625" type="line"/>
      <point x="987.8957" y="805.659625" type="line"/>
      <point x="987.8957" y="673.578" type="line"/>
      <point x="335.6751" y="673.578" type="line"/>
      <point x="335.6751" y="132.245125" type="line"/>
      <point x="1056.2773" y="132.245125" type="line"/>
      <point x="1056.2773" y="0.0" type="line"/>
    </contour>
  </outline>
</glyph>
<glyph name="F" format="1">
  <advance width="1076.1853"/>
  <unicode hex="0046"/>
  <outline>
    <contour>
      <point x="184.8552" y="0.0" type="line"/>
      <point x="184.8552" y="1456.0" type="line"/>
      <point x="993.8957" y="1456.0" type="line"/>
      <point x="993.8957" y="1323.754875" type="line"/>
      <point x="336.3544" y="1323.754875" type="line"/>
      <point x="336.3544" y="798.914375" type="line"/>
      <point x="942.7969" y="798.914375" type="line"/>
      <point x="942.7969" y="666.83275" type="line"/>
      <point x="336.3544" y="666.83275" type="line"/>
      <point x="336.3544" y="0.0" type="line"/>
    </contour>
  </outline>
</glyph>
<glyph name="G" format="1">
  <advance width="1520.5196"/>
  <unicode hex="0047"/>
  <outline>
    <contour>
      <point x="838.3897" y="-21.8365" type="curve" smooth="yes"/>
      <point x="360.8092" y="-21.8365"/>
      <point x="108.6793" y="267.0"/>
      <point x="108.6793" y="700.218625" type="curve" smooth="yes"/>
      <point x="108.6793" y="1194.73775"/>
      <point x="477.6077" y="1481.8365"/>
      <point x="846.9093" y="1481.8365" type="curve" smooth="yes"/>
      <point x="976.9294" y="1481.8365"/>
      <point x="1149.8212" y="1463.355625"/>
      <point x="1324.3599" y="1335.382125" type="curve"/>
      <point x="1262.1908" y="1229.956375" type="line"/>
      <point x="1110.3003" y="1332.568625"/>
      <point x="971.2705" y="1352.081875"/>
      <point x="855.161" y="1352.081875" type="curve" smooth="yes"/>
      <point x="559.0907" y="1352.081875"/>
      <point x="264.8199" y="1131.985"/>
      <point x="264.8199" y="713.8365" type="curve" smooth="yes"/>
      <point x="264.8199" y="354.842125"/>
      <point x="437.7509" y="108.081625"/>
      <point x="842.8403" y="108.081625" type="curve" smooth="yes"/>
      <point x="963.6712" y="108.081625"/>
      <point x="1101.9216" y="128.19"/>
      <point x="1201.8905" y="170.769875" type="curve"/>
      <point x="1201.8905" y="617.65025" type="line"/>
      <point x="820.8688" y="617.65025" type="line"/>
      <point x="820.8688" y="748.731875" type="line"/>
      <point x="1352.5196" y="748.731875" type="line"/>
      <point x="1352.5196" y="82.055125" type="line"/>
      <point x="1197.2287" y="8.617875"/>
      <point x="1010.2598" y="-21.8365"/>
    </contour>
  </outline>
</glyph>
<glyph name="H" format="1">
  <advance width="1592.7091"/>
  <unicode hex="0048"/>
  <outline>
    <contour>
      <point x="226.5332" y="0.0" type="line"/>
      <point x="226.5332" y="1456.0" type="line"/>
      <point x="378.0324" y="1456.0" type="line"/>
      <point x="378.0324" y="807.9505" type="line"/>
      <point x="1210.2112" y="807.9505" type="line"/>
      <point x="1210.2112" y="1456.0" type="line"/>
      <point x="1360.2219" y="1456.0" type="line"/>
      <point x="1360.2219" y="0.0" type="line"/>
      <point x="1208.8526" y="0.0" type="line"/>
      <point x="1208.8526" y="682.268125" type="line"/>
      <point x="376.6738" y="682.268125" type="line"/>
      <point x="376.6738" y="0.0" type="line"/>
    </contour>
  </outline>
</glyph>
<glyph name="I" format="1">
  <advance width="563.6116"/>
  <unicode hex="0049"/>
  <outline>
    <contour>
      <point x="205.9608" y="0.0" type="line"/>
      <point x="205.9608" y="1456.0" type="line"/>
      <point x="357.46" y="1456.0" type="line"/>
      <point x="357.46" y="0.0" type="line"/>
    </contour>
  </outline>
</glyph>
<glyph name="J" format="1">
  <advance width="501.9466"/>
  <unicode hex="004A"/>
  <outline>
    <contour>
      <point x="28.5611" y="-329.8365" type="curve" smooth="yes"/>
      <point x="-91.3997" y="-329.8365"/>
      <point x="-189.148" y="-289.47525"/>
      <point x="-169.7784" y="-294.142625" type="curve"/>
      <point x="-154.8691" y="-164.69975" type="line"/>
      <point x="-171.5296" y="-160.830875"/>
      <point x="-93.4687" y="-196.519125"/>
      <point x="17.5219" y="-196.519125" type="curve" smooth="yes"/>
      <point x="149.3622" y="-196.519125"/>
      <point x="162.2336" y="-95.792875"/>
      <point x="162.2336" y="127.1255" type="curve" smooth="yes"/>
      <point x="162.2336" y="1456.0" type="line"/>
      <point x="313.7328" y="1456.0" type="line"/>
      <point x="313.7328" y="113.43725" type="line" smooth="yes"/>
      <point x="313.7328" y="-186.507625"/>
      <point x="227.7613" y="-329.8365"/>
    </contour>
  </outline>
</glyph>
<glyph name="L" format="1">
  <advance width="1039.3246"/>
  <unicode hex="004C"/>
  <outline>
    <contour>
      <point x="184.8552" y="0.0" type="line"/>
      <point x="184.8552" y="1456.0" type="line"/>
      <point x="336.3544" y="1456.0" type="line"/>
      <point x="336.3544" y="132.245125" type="line"/>
      <point x="1013.9268" y="132.245125" type="line"/>
      <point x="1013.9268" y="0.0" type="line"/>
    </contour>
  </outline>
</glyph>
<glyph name="M" format="1">
  <advance width="1832.5925"/>
  <unicode hex="004D"/>
  <outline>
    <contour>
      <point x="184.8552" y="0.0" type="line"/>
      <point x="184.8552" y="1456.0" type="line"/>
      <point x="377.3774" y="1456.0" type="line"/>
      <point x="836.6657" y="395.32675" type="line"/>
      <point x="916.7658" y="199.594875" type="line"/>
      <point x="994.9958" y="397.545375" type="line"/>
      <point x="1460.0852" y="1456.0" type="line"/>
      <point x="1647.7373" y="1456.0" type="line"/>
      <point x="1647.7373" y="0.0" type="line"/>
      <point x="1502.3071" y="0.0" type="line"/>
      <point x="1502.3071" y="1211.83675" type="line"/>
      <point x="1463.5954" y="1111.443375" type="line"/>
      <point x="969.6372" y="0.0" type="line"/>
      <point x="859.2151" y="0.0" type="line"/>
      <point x="382.4166" y="1084.755125" type="line"/>
      <point x="330.9268" y="1236.487" type="line"/>
      <point x="330.9268" y="0.0" type="line"/>
    </contour>
  </outline>
</glyph>
<glyph name="R" format="1">
  <advance width="1300.2164"/>
  <unicode hex="0052"/>
  <outline>
    <contour>
      <point x="184.8552" y="0.0" type="line"/>
      <point x="184.8552" y="1456.0" type="line"/>
      <point x="584.7062" y="1456.0" type="line" smooth="yes"/>
      <point x="806.7467" y="1456.0"/>
      <point x="1083.4775" y="1418.777625"/>
      <point x="1083.4775" y="1077.19775" type="curve" smooth="yes"/>
      <point x="1083.4775" y="886.165375"/>
      <point x="1006.2177" y="760.454375"/>
      <point x="823.0567" y="713.454375" type="curve"/>
      <point x="981.0771" y="675.07225"/>
      <point x="1019.9864" y="507.574"/>
      <point x="1076.0473" y="367.612" type="curve" smooth="yes"/>
      <point x="1224.4762" y="0.0" type="line"/>
      <point x="1062.2057" y="0.0" type="line"/>
      <point x="902.7551" y="415.5475" type="line" smooth="yes"/>
      <point x="829.7862" y="605.597"/>
      <point x="799.7551" y="657.32325"/>
      <point x="609.9553" y="657.32325" type="curve" smooth="yes"/>
      <point x="336.3544" y="657.32325" type="line"/>
      <point x="336.3544" y="0.0" type="line"/>
    </contour>
    <contour>
      <point x="337.2245" y="789.02275" type="line"/>
      <point x="595.0256" y="789.02275" type="line" smooth="yes"/>
      <point x="782.8565" y="789.02275"/>
      <point x="923.3369" y="847.530375"/>
      <point x="923.3369" y="1060.416375" type="curve" smooth="yes"/>
      <point x="923.3369" y="1270.629375"/>
      <point x="819.6048" y="1323.754875"/>
      <point x="601.8659" y="1323.754875" type="curve" smooth="yes"/>
      <point x="337.2245" y="1323.754875" type="line"/>
    </contour>
  </outline>
</glyph>
<glyph name="S" format="1">
  <advance width="1167.5371"/>
  <unicode hex="0053"/>
  <outline>
    <contour>
      <point x="589.0392" y="-21.8365" type="curve" smooth="yes"/>
      <point x="293.7292" y="-21.8365"/>
      <point x="128.5601" y="139.043875"/>
      <point x="133.4804" y="140.382125" type="curve"/>
      <point x="203.8403" y="253.880125" type="line"/>
      <point x="225.7509" y="237.11025"/>
      <point x="366.7901" y="108.081625"/>
      <point x="591.7104" y="108.081625" type="curve" smooth="yes"/>
      <point x="799.4195" y="108.081625"/>
      <point x="917.1895" y="202.22425"/>
      <point x="917.1895" y="362.749" type="curve" smooth="yes"/>
      <point x="917.1895" y="544.15975"/>
      <point x="835.5805" y="610.44875"/>
      <point x="511.2002" y="698.61225" type="curve" smooth="yes"/>
      <point x="282.2896" y="760.52475"/>
      <point x="125.8701" y="870.541875"/>
      <point x="125.8701" y="1105.579875" type="curve" smooth="yes"/>
      <point x="125.8701" y="1358.853625"/>
      <point x="360.3505" y="1481.8365"/>
      <point x="618.3207" y="1481.8365" type="curve" smooth="yes"/>
      <point x="890.0" y="1481.8365"/>
      <point x="1015.6333" y="1345.918125"/>
      <point x="1015.9728" y="1339.52475" type="curve"/>
      <point x="945.2611" y="1232.918375" type="line"/>
      <point x="934.701" y="1240.27375"/>
      <point x="833.471" y="1352.081875"/>
      <point x="634.161" y="1352.081875" type="curve" smooth="yes"/>
      <point x="443.46" y="1352.081875"/>
      <point x="284.1406" y="1275.93925"/>
      <point x="284.1406" y="1107.72625" type="curve" smooth="yes"/>
      <point x="284.1406" y="924.38775"/>
      <point x="384.3599" y="883.38775"/>
      <point x="643.8105" y="807.9505" type="curve" smooth="yes"/>
      <point x="983.1312" y="709.67675"/>
      <point x="1069.1014" y="579.207125"/>
      <point x="1069.1014" y="366.31175" type="curve" smooth="yes"/>
      <point x="1069.1014" y="114.979125"/>
      <point x="862.5886" y="-21.8365"/>
    </contour>
  </outline>
</glyph>
<glyph name="U" format="1">
  <advance width="1488.138"/>
  <unicode hex="0055"/>
  <outline>
    <contour>
      <point x="733.6495" y="-21.8365" type="curve" smooth="yes"/>
      <point x="333.2883" y="-21.8365"/>
      <point x="175.4195" y="197.880125"/>
      <point x="175.4195" y="532.825" type="curve" smooth="yes"/>
      <point x="175.4195" y="1456.0" type="line"/>
      <point x="326.9187" y="1456.0" type="line"/>
      <point x="326.9187" y="541.568375" type="line" smooth="yes"/>
      <point x="326.9187" y="278.8365"/>
      <point x="422.8821" y="108.081625"/>
      <point x="742.5805" y="108.081625" type="curve" smooth="yes"/>
      <point x="1032.2112" y="108.081625"/>
      <point x="1160.9216" y="271.27375"/>
      <point x="1160.9216" y="527.606375" type="curve" smooth="yes"/>
      <point x="1160.9216" y="1456.0" type="line"/>
      <point x="1311.23" y="1456.0" type="line"/>
      <point x="1311.23" y="540.38775" type="line"/>
      <point x="1308.5507" y="171.119625"/>
      <point x="1091.4396" y="-21.8365"/>
    </contour>
  </outline>
</glyph>
<glyph name="V" format="1">
  <advance width="1262.7901"/>
  <unicode hex="0056"/>
  <outline>
    <contour>
      <point x="548.161" y="0.0" type="line"/>
      <point x="10.9391" y="1456.0" type="line"/>
      <point x="179.3395" y="1456.0" type="line"/>
      <point x="603.8701" y="263.381625" type="line"/>
      <point x="635.46" y="158.545375" type="line"/>
      <point x="669.92" y="264.708625" type="line"/>
      <point x="1095.3897" y="1456.0" type="line"/>
      <point x="1251.851" y="1456.0" type="line"/>
      <point x="716.3314" y="0.0" type="line"/>
    </contour>
  </outline>
</glyph>
<glyph name="X" format="1">
  <advance width="1140.5193"/>
  <unicode hex="0058"/>
  <outline>
    <contour>
      <point x="979.4911" y="0.0" type="line"/>
      <point x="564.0499" y="625.317625" type="line"/>
      <point x="159.15" y="0.0" type="line"/>
      <point x="-8.5792" y="0.0" type="line"/>
      <point x="477.8497" y="744.56275" type="line"/>
      <point x="-5.54" y="1456.0" type="line"/>
      <point x="170.0214" y="1456.0" type="line"/>
      <point x="564.9511" y="867.245125" type="line"/>
      <point x="951.6602" y="1456.0" type="line"/>
      <point x="1117.6411" y="1456.0" type="line"/>
      <point x="649.9605" y="750.781375" type="line"/>
      <point x="1148.9916" y="0.0" type="line"/>
    </contour>
  </outline>
</glyph>
<glyph name="Y" format="1">
  <advance width="1182.3693"/>
  <unicode hex="0059"/>
  <outline>
    <contour>
      <point x="510.8701" y="0.0" type="line"/>
      <point x="510.8701" y="582.743375" type="line"/>
      <point x="20.5792" y="1456.0" type="line"/>
      <point x="181.7509" y="1456.0" type="line"/>
      <point x="589.1312" y="712.807875" type="line"/>
      <point x="1002.0609" y="1456.0" type="line"/>
      <point x="1161.7901" y="1456.0" type="line"/>
      <point x="662.3693" y="585.906875" type="line"/>
      <point x="662.3693" y="0.0" type="line"/>
    </contour>
  </outline>
</glyph>
<glyph name="Z" format="1">
  <advance width="1162.1691"/>
  <unicode hex="005A"/>
  <outline>
    <contour>
      <point x="104.5792" y="0.0" type="line"/>
      <point x="104.5792" y="82.005625" type="line"/>
      <point x="874.9203" y="1323.754875" type="line"/>
      <point x="137.8309" y="1323.754875" type="line"/>
      <point x="137.8309" y="1456.0" type="line"/>
      <point x="1077.23" y="1456.0" type="line"/>
      <point x="1077.23" y="1377.994375" type="line"/>
      <point x="303.0797" y="132.245125" type="line"/>
      <point x="1067.4898" y="132.245125" type="line"/>
      <point x="1067.4898" y="0.0" type="line"/>
    </contour>
  </outline>
</glyph>
<glyph name="bracketright" format="1">
  <advance width="687.8377"/>
  <unicode hex="005D"/>
  <outline>
    <contour>
      <point x="149.9906" y="-276.005875" type="line"/>
      <point x="149.9906" y="-169.306375" type="line"/>
      <point x="414.1098" y="-169.306375" type="line"/>
      <point x="414.1098" y="1338.68825" type="line"/>
      <point x="148.7998" y="1338.68825" type="line"/>
      <point x="148.7998" y="1445.38775" type="line"/>
      <point x="554.8688" y="1445.38775" type="line"/>
      <point x="554.8688" y="-276.005875" type="line"/>
    </contour>
  </outline>
</glyph>
<glyph name="asciicircum" format="1">
  <advance width="1674.4088"/>
  <unicode hex="005E"/>
  <outline>
    <contour>
      <point x="329.4995" y="583.667375" type="line"/>
      <point x="789.7606" y="1456.0" type="line"/>
      <point x="875.9689" y="1456.0" type="line"/>
      <point x="1344.9093" y="583.667375" type="line"/>
      <point x="1213.8905" y="583.667375" type="line"/>
      <point x="831.7998" y="1309.131375" type="line"/>
      <point x="460.3505" y="583.667375" type="line"/>
    </contour>
  </outline>
</glyph>
<glyph name="grave" format="1">
  <advance width="589.138"/>
  <unicode hex="0060"/>
  <outline>
    <contour>
      <point x="413.7687" y="1172.07225" type="line"/>
      <point x="86.31" y="1465.838375" type="line"/>
      <point x="274.1001" y="1465.838375" type="line"/>
      <point x="517.6197" y="1172.07225" type="line"/>
    </contour>
  </outline>
</glyph>
<glyph name="a" format="1">
  <advance width="1261.9093"/>
  <unicode hex="0061"/>
  <outline>
    <contour>
      <point x="957.4195" y="229.39925" type="line"/>
      <point x="892.5945176" y="73.418885125"/>
      <point x="764.4733901" y="-21.806307175"/>
      <point x="594.4025782" y="-21.806307175" type="curve" smooth="yes"/>
      <point x="256.0345953" y="-21.806307175"/>
      <point x="97.5805" y="215.350699"/>
      <point x="97.5805" y="521.743375" type="curve" smooth="yes"/>
      <point x="97.5805" y="833.994375"/>
      <point x="284.954" y="1052.0"/>
      <point x="606.5805" y="1052.0" type="curve" smooth="yes"/>
      <point x="829.5332" y="1052.0"/>
      <point x="905.1908" y="892.625375"/>
      <point x="954.3207" y="831.363125" type="curve"/>
      <point x="931.9689" y="827.214875" type="line"/>
      <point x="931.9689" y="1026.0" type="line"/>
      <point x="1076.0405" y="1026.0" type="line"/>
      <point x="1076.0405" y="0.0" type="line"/>
      <point x="933.2206" y="0.0" type="line"/>
      <point x="933.2206" y="239.454375" type="line"/>
    </contour>
    <contour>
      <point x="599.6806" y="933.137" type="curve" smooth="yes"/>
      <point x="335.5912" y="933.137"/>
      <point x="248.3314" y="726.88975"/>
      <point x="248.3314" y="516.1635" type="curve" smooth="yes"/>
      <point x="248.3314" y="305.365"/>
      <point x="342.8199" y="97.0265"/>
      <point x="599.8105" y="97.0265" type="curve" smooth="yes"/>
      <point x="803.8105" y="97.0265"/>
      <point x="937.2896" y="266.22425"/>
      <point x="937.2896" y="528.962" type="curve" smooth="yes"/>
      <point x="937.2896" y="738.52475"/>
      <point x="823.5805" y="933.137"/>
    </contour>
  </outline>
</glyph>
<glyph name="b" format="1">
  <advance width="1252.1691"/>
  <unicode hex="0062"/>
  <outline>
    <contour>
      <point x="710.5494" y="-21.8365" type="curve" smooth="yes"/>
      <point x="510.4289" y="-21.8365"/>
      <point x="382.2002" y="86.705375"/>
      <point x="332.5209" y="201.73775" type="curve"/>
      <point x="329.5439" y="0.0" type="line"/>
      <point x="184.701" y="0.0" type="line"/>
      <point x="182.77" y="-56.968125"/>
      <point x="191.5102" y="235.43725"/>
      <point x="191.5102" y="269.382125" type="curve" smooth="yes"/>
      <point x="191.5102" y="1499.65025" type="line"/>
      <point x="334.2232" y="1499.65025" type="line"/>
      <point x="334.2232" y="841.51325" type="line"/>
      <point x="411.7632" y="976.994375"/>
      <point x="552.7389" y="1052.0"/>
      <point x="702.1989" y="1052.0" type="curve" smooth="yes"/>
      <point x="972.3599" y="1052.0"/>
      <point x="1165.5196" y="866.48675"/>
      <point x="1165.5196" y="539.906875" type="curve" smooth="yes"/>
      <point x="1165.5196" y="184.819375"/>
      <point x="989.5183" y="-21.8365"/>
    </contour>
    <contour>
      <point x="703.1895" y="97.0265" type="curve" smooth="yes"/>
      <point x="897.0596" y="97.0265"/>
      <point x="1018.2491" y="245.97325"/>
      <point x="1018.2491" y="546.705375" type="curve" smooth="yes"/>
      <point x="1018.2491" y="780.591375"/>
      <point x="883.5102" y="933.137"/>
      <point x="687.3505" y="933.137" type="curve" smooth="yes"/>
      <point x="474.7713" y="933.137"/>
      <point x="338.4898" y="776.519125"/>
      <point x="338.4898" y="515.0" type="curve" smooth="yes"/>
      <point x="338.4898" y="243.355375"/>
      <point x="487.2896" y="97.0265"/>
    </contour>
  </outline>
</glyph>
<glyph name="c" format="1">
  <advance width="1001.2313"/>
  <unicode hex="0063"/>
  <outline>
    <contour>
      <point x="604.253" y="-21.8365" type="curve" smooth="yes"/>
      <point x="311.9919" y="-21.8365"/>
      <point x="95.9621" y="167.9885"/>
      <point x="95.9621" y="500.655875" type="curve" smooth="yes"/>
      <point x="95.9621" y="845.306125"/>
      <point x="319.6942" y="1052.0"/>
      <point x="614.8633" y="1052.0" type="curve" smooth="yes"/>
      <point x="732.1623" y="1052.0"/>
      <point x="843.2543" y="1012.39925"/>
      <point x="919.3233" y="941.142625" type="curve"/>
      <point x="870.4519" y="842.53625" type="line"/>
      <point x="806.391" y="898.317625"/>
      <point x="708.2922" y="931.9735"/>
      <point x="617.322" y="931.9735" type="curve" smooth="yes"/>
      <point x="446.2219" y="931.9735"/>
      <point x="243.9119" y="824.8975"/>
      <point x="243.9119" y="503.27375" type="curve" smooth="yes"/>
      <point x="243.9119" y="247.6615"/>
      <point x="385.1325" y="97.0265"/>
      <point x="600.2922" y="97.0265" type="curve" smooth="yes"/>
      <point x="696.9728" y="97.0265"/>
      <point x="810.552" y="121.758375"/>
      <point x="893.7415" y="185.46375" type="curve"/>
      <point x="939.8416" y="86.055125" type="line"/>
      <point x="863.2909" y="20.39925"/>
      <point x="746.253" y="-21.8365"/>
    </contour>
  </outline>
</glyph>
<glyph name="f" format="1">
  <advance width="664.7603"/>
  <unicode hex="0066"/>
  <outline>
    <contour>
      <point x="246.1989" y="0.0" type="line"/>
      <point x="246.1989" y="932.57425" type="line"/>
      <point x="67.3207" y="932.57425" type="line"/>
      <point x="67.3207" y="1026.0" type="line"/>
      <point x="246.1989" y="1026.0" type="line"/>
      <point x="246.1989" y="1141.355625" type="line" smooth="yes"/>
      <point x="246.1989" y="1383.142625"/>
      <point x="295.1908" y="1494.180625"/>
      <point x="614.0405" y="1494.180625" type="curve" smooth="yes"/>
      <point x="658.3003" y="1494.180625" type="line"/>
      <point x="660.7198" y="1380.69975" type="line"/>
      <point x="407.0188" y="1380.69975"/>
      <point x="388.9119" y="1320.830875"/>
      <point x="388.9119" y="1168.880375" type="curve" smooth="yes"/>
      <point x="388.9119" y="1026.0" type="line"/>
      <point x="642.5601" y="1026.0" type="line"/>
      <point x="642.5601" y="932.57425" type="line"/>
      <point x="388.9119" y="932.57425" type="line"/>
      <point x="388.9119" y="0.0" type="line"/>
    </contour>
  </outline>
</glyph>
<glyph name="g" format="1">
  <advance width="1257.0988"/>
  <unicode hex="0067"/>
  <outline>
    <contour>
      <point x="568.391" y="112.572125" type="curve" smooth="yes"/>
      <point x="793.23" y="112.572125"/>
      <point x="930.2504" y="278.408625"/>
      <point x="930.2504" y="556.032375" type="curve" smooth="yes"/>
      <point x="930.2504" y="789.3005"/>
      <point x="794.2598" y="933.137"/>
      <point x="592.5507" y="933.137" type="curve" smooth="yes"/>
      <point x="386.3301" y="933.137"/>
      <point x="242.851" y="776.464"/>
      <point x="242.851" y="513.382125" type="curve" smooth="yes"/>
      <point x="242.851" y="272.114"/>
      <point x="374.9715" y="112.572125"/>
    </contour>
    <contour>
      <point x="958.7389" y="257.93925" type="line"/>
      <point x="909.3243281" y="124.84531625"/>
      <point x="798.9166397" y="-9.4079105375"/>
      <point x="573.8039656" y="-9.4079105375" type="curve" smooth="yes"/>
      <point x="291.6613309" y="-9.4079105375"/>
      <point x="95.5805" y="198.885047875"/>
      <point x="95.5805" y="508.60075" type="curve" smooth="yes"/>
      <point x="95.5805" y="852.157875"/>
      <point x="291.4493" y="1052.0"/>
      <point x="576.3897" y="1052.0" type="curve" smooth="yes"/>
      <point x="833.1584" y="1052.0"/>
      <point x="908.8999" y="890.9505"/>
      <point x="972.4101" y="789.114" type="curve"/>
      <point x="931.8607" y="782.31175" type="line"/>
      <point x="941.0894" y="1026.0" type="line"/>
      <point x="1079.9404" y="1026.0" type="line"/>
      <point x="1079.9404" y="1026.0"/>
      <point x="1077.4208" y="852.80225"/>
      <point x="1077.4208" y="793.606625" type="curve" smooth="yes"/>
      <point x="1077.4208" y="129.5475" type="line" smooth="yes"/>
      <point x="1077.4208" y="-255.983125"/>
      <point x="846.9294" y="-422.108375"/>
      <point x="575.8092" y="-422.108375" type="curve" smooth="yes"/>
      <point x="428.1989" y="-422.108375"/>
      <point x="311.5115" y="-393.108375"/>
      <point x="189.1908" y="-332.88975" type="curve"/>
      <point x="209.8403" y="-204.808125" type="line"/>
      <point x="324.9093" y="-265.446875"/>
      <point x="412.2002" y="-296.754875"/>
      <point x="576.2896" y="-296.754875" type="curve" smooth="yes"/>
      <point x="812.54" y="-296.754875"/>
      <point x="933.54" y="-163.17875"/>
      <point x="933.54" y="123.20925" type="curve" smooth="yes"/>
      <point x="933.54" y="275.922125" type="line"/>
    </contour>
  </outline>
</glyph>
<glyph name="k" format="1">
  <advance width="1066.5886"/>
  <unicode hex="006B"/>
  <outline>
    <contour>
      <point x="186.701" y="0.0" type="line"/>
      <point x="186.701" y="1499.65025" type="line"/>
      <point x="329.2232" y="1499.65025" type="line"/>
      <point x="329.2232" y="582.47525" type="line"/>
      <point x="820.7998" y="1026.0" type="line"/>
      <point x="1016.3003" y="1026.0" type="line"/>
      <point x="474.5614" y="544.7985" type="line"/>
      <point x="1055.8497" y="0.0" type="line"/>
      <point x="864.609" y="0.0" type="line"/>
      <point x="329.2232" y="513.956375" type="line"/>
      <point x="329.2232" y="0.0" type="line"/>
    </contour>
  </outline>
</glyph>
<glyph name="m" format="1">
  <advance width="1902.563"/>
  <unicode hex="006D"/>
  <outline>
    <contour>
      <point x="190.3884" y="0.0" type="line"/>
      <point x="190.3884" y="775.9735" type="line" smooth="yes"/>
      <point x="190.3884" y="841.530375"/>
      <point x="191.8688" y="949.055125"/>
      <point x="187.678" y="1026.0" type="curve"/>
      <point x="334.46" y="1026.0" type="line"/>
      <point x="334.46" y="838.005625" type="line"/>
      <point x="393.391" y="985.617875"/>
      <point x="559.6184" y="1052.0"/>
      <point x="693.1678" y="1052.0" type="curve" smooth="yes"/>
      <point x="845.3884" y="1052.0"/>
      <point x="959.3275" y="952.51325"/>
      <point x="1001.3586" y="806.55125" type="curve"/>
      <point x="1075.1678" y="959.982875"/>
      <point x="1227.7389" y="1052.0"/>
      <point x="1400.7078" y="1052.0" type="curve" smooth="yes"/>
      <point x="1611.3275" y="1052.0"/>
      <point x="1733.0068" y="894.88975"/>
      <point x="1733.0068" y="630.1635" type="curve" smooth="yes"/>
      <point x="1733.0068" y="0.0" type="line"/>
      <point x="1590.4846" y="0.0" type="line"/>
      <point x="1590.4846" y="606.60075" type="line" smooth="yes"/>
      <point x="1590.4846" y="855.530625"/>
      <point x="1516.1882" y="933.137"/>
      <point x="1376.8377" y="933.137" type="curve" smooth="yes"/>
      <point x="1226.517" y="933.137"/>
      <point x="1038.3288" y="801.317625"/>
      <point x="1038.3288" y="588.39925" type="curve" smooth="yes"/>
      <point x="1038.3288" y="0.0" type="line"/>
      <point x="895.8066" y="0.0" type="line"/>
      <point x="895.8066" y="636.72625" type="line" smooth="yes"/>
      <point x="895.8066" y="828.770125"/>
      <point x="816.1976" y="933.137"/>
      <point x="661.0379" y="933.137" type="curve" smooth="yes"/>
      <point x="480.3978" y="933.137"/>
      <point x="332.9106" y="770.7605"/>
      <point x="332.9106" y="597.31175" type="curve" smooth="yes"/>
      <point x="332.9106" y="0.0" type="line"/>
    </contour>
  </outline>
</glyph>
<glyph name="n" format="1">
  <advance width="1250.4344"/>
  <unicode hex="006E"/>
  <outline>
    <contour>
      <point x="190.5792" y="0.0" type="line"/>
      <point x="190.5792" y="811.618125" type="line" smooth="yes"/>
      <point x="190.5792" y="907.142625"/>
      <point x="188.0596" y="1026.0"/>
      <point x="188.0596" y="1026.0" type="curve"/>
      <point x="334.6508" y="1026.0" type="line"/>
      <point x="334.6508" y="858.530375" type="line"/>
      <point x="400.7198" y="969.9125"/>
      <point x="538.7198" y="1052.0"/>
      <point x="704.069" y="1052.0" type="curve" smooth="yes"/>
      <point x="1021.448" y="1052.0"/>
      <point x="1086.4506" y="821.830625"/>
      <point x="1086.4506" y="542.18625" type="curve" smooth="yes"/>
      <point x="1086.4506" y="0.0" type="line"/>
      <point x="943.9284" y="0.0" type="line"/>
      <point x="943.9284" y="514.918125" type="line" smooth="yes"/>
      <point x="943.9284" y="759.47525"/>
      <point x="917.149" y="933.137"/>
      <point x="679.2896" y="933.137" type="curve" smooth="yes"/>
      <point x="453.2096" y="933.137"/>
      <point x="334.2922" y="736.076"/>
      <point x="333.1014" y="660.431625" type="curve"/>
      <point x="333.1014" y="0.0" type="line"/>
    </contour>
  </outline>
</glyph>
<glyph name="o" format="1">
  <advance width="1238.6197"/>
  <unicode hex="006F"/>
  <outline>
    <contour>
      <point x="626.7104" y="97.0265" type="curve" smooth="yes"/>
      <point x="855.4195" y="97.0265"/>
      <point x="990.2193" y="247.13675"/>
      <point x="990.2193" y="510.055125" type="curve" smooth="yes"/>
      <point x="990.2193" y="774.192125"/>
      <point x="854.4804" y="933.137"/>
      <point x="621.6495" y="933.137" type="curve" smooth="yes"/>
      <point x="386.1393" y="933.137"/>
      <point x="248.4004" y="774.192125"/>
      <point x="248.4004" y="507.43725" type="curve" smooth="yes"/>
      <point x="248.4004" y="245.682375"/>
      <point x="389.0703" y="97.0265"/>
    </contour>
    <contour>
      <point x="620.7794" y="-21.8365" type="curve" smooth="yes"/>
      <point x="307.7091" y="-21.8365"/>
      <point x="95.5805" y="172.55125"/>
      <point x="95.5805" y="510.382125" type="curve" smooth="yes"/>
      <point x="95.5805" y="851.431625"/>
      <point x="307.1597" y="1052.0"/>
      <point x="625.8403" y="1052.0" type="curve" smooth="yes"/>
      <point x="932.1704" y="1052.0"/>
      <point x="1143.0392" y="851.104625"/>
      <point x="1143.0392" y="513.617875" type="curve" smooth="yes"/>
      <point x="1143.0392" y="173.22425"/>
      <point x="933.3991" y="-21.8365"/>
    </contour>
  </outline>
</glyph>
<glyph name="p" format="1">
  <advance width="1250.3518"/>
  <unicode hex="0070"/>
  <outline>
    <contour>
      <point x="190.0907" y="-434.032375" type="line"/>
      <point x="190.0907" y="775.481125" type="line" smooth="yes"/>
      <point x="190.0907" y="819.469625"/>
      <point x="189.0217" y="929.180625"/>
      <point x="184.701" y="1026.0" type="curve"/>
      <point x="333.7807" y="1026.0" type="line"/>
      <point x="333.7807" y="828.787" type="line"/>
      <point x="395.8403" y="974.541875"/>
      <point x="562.0907" y="1052.0"/>
      <point x="682.3599" y="1052.0" type="curve" smooth="yes"/>
      <point x="968.9093" y="1052.0"/>
      <point x="1154.3897" y="859.61225"/>
      <point x="1154.3897" y="527.617875" type="curve" smooth="yes"/>
      <point x="1154.3897" y="175.42575"/>
      <point x="962.1691" y="-21.8365"/>
      <point x="689.5196" y="-21.8365" type="curve" smooth="yes"/>
      <point x="542.2896" y="-21.8365"/>
      <point x="387.2909" y="54.749"/>
      <point x="333.7807" y="176.705375" type="curve"/>
      <point x="333.7807" y="-434.032375" type="line"/>
    </contour>
    <contour>
      <point x="676.2206" y="97.0265" type="curve" smooth="yes"/>
      <point x="868.8999" y="97.0265"/>
      <point x="1001.5698" y="252.081625"/>
      <point x="1001.5698" y="522.56275" type="curve" smooth="yes"/>
      <point x="1001.5698" y="779.137"/>
      <point x="873.0217" y="933.137"/>
      <point x="683.9608" y="933.137" type="curve" smooth="yes"/>
      <point x="477.931" y="933.137"/>
      <point x="337.2611" y="766.629375"/>
      <point x="337.2611" y="488.530375" type="curve" smooth="yes"/>
      <point x="337.2611" y="239.574"/>
      <point x="477.2896" y="97.0265"/>
    </contour>
  </outline>
</glyph>
<glyph name="r" format="1">
  <advance width="848.8377"/>
  <unicode hex="0072"/>
  <outline>
    <contour>
      <point x="192.3884" y="0.0" type="line"/>
      <point x="192.3884" y="781.962" type="line" smooth="yes"/>
      <point x="192.3884" y="751.688"/>
      <point x="187.4872" y="1026.0"/>
      <point x="187.4872" y="1026.0" type="curve"/>
      <point x="336.0784" y="1026.0" type="line"/>
      <point x="336.0784" y="850.51325" type="line"/>
      <point x="386.0486" y="978.982875"/>
      <point x="496.0094" y="1049.382125"/>
      <point x="615.4289" y="1049.382125" type="curve" smooth="yes"/>
      <point x="656.8484" y="1049.382125"/>
      <point x="693.0392" y="1045.545625"/>
      <point x="724.9783" y="1038.1635" type="curve"/>
      <point x="724.9783" y="907.081875" type="line"/>
      <point x="711.5575" y="909.73775"/>
      <point x="669.5575" y="921.9735"/>
      <point x="614.5886" y="921.9735" type="curve" smooth="yes"/>
      <point x="445.9485" y="921.9735"/>
      <point x="334.9106" y="781.070375"/>
      <point x="334.9106" y="565.038" type="curve" smooth="yes"/>
      <point x="334.9106" y="0.0" type="line"/>
    </contour>
  </outline>
</glyph>
<glyph name="s" format="1">
  <advance width="949.7198"/>
  <unicode hex="0073"/>
  <outline>
    <contour>
      <point x="494.9025" y="-21.8365" type="curve" smooth="yes"/>
      <point x="255.4992" y="-21.8365"/>
      <point x="133.2462" y="83.48675"/>
      <point x="116.8092" y="98.60075" type="curve"/>
      <point x="161.4357" y="205.081625" type="line"/>
      <point x="209.0933" y="172.005625"/>
      <point x="330.7428" y="96.863"/>
      <point x="485.5128" y="96.863" type="curve" smooth="yes"/>
      <point x="592.1082" y="96.863"/>
      <point x="714.3126" y="127.6995"/>
      <point x="714.3126" y="270.093125" type="curve" smooth="yes"/>
      <point x="714.3126" y="410.57425"/>
      <point x="588.0405" y="424.230125"/>
      <point x="389.2326" y="490.57425" type="curve"/>
      <point x="230.3612" y="546.393625"/>
      <point x="115.6874" y="602.3385"/>
      <point x="115.6874" y="774.906875" type="curve" smooth="yes"/>
      <point x="115.6874" y="970.1635"/>
      <point x="316.1678" y="1052.617875"/>
      <point x="480.4438" y="1052.617875" type="curve" smooth="yes"/>
      <point x="705.3722" y="1052.617875"/>
      <point x="796.2287" y="984.9125"/>
      <point x="820.3761" y="969.579875" type="curve"/>
      <point x="775.2381" y="862.918375" type="line"/>
      <point x="778.77" y="862.268125"/>
      <point x="669.7849" y="932.9735"/>
      <point x="522.7713" y="932.9735" type="curve" smooth="yes"/>
      <point x="357.6589" y="932.9735"/>
      <point x="267.0107" y="879.393625"/>
      <point x="266.8199" y="781.52475" type="curve" smooth="yes"/>
      <point x="266.6291" y="653.9505"/>
      <point x="343.1244" y="649.131125"/>
      <point x="580.6563" y="568.442875" type="curve" smooth="yes"/>
      <point x="749.9702" y="509.787"/>
      <point x="861.2922" y="451.769875"/>
      <point x="861.2922" y="282.60075" type="curve" smooth="yes"/>
      <point x="861.2922" y="64.180625"/>
      <point x="687.8714" y="-21.8365"/>
    </contour>
  </outline>
</glyph>
<glyph name="t" format="1">
  <advance width="703.0418"/>
  <unicode hex="0074"/>
  <outline>
    <contour>
      <point x="634.4843" y="-0.1635" type="line"/>
      <point x="610.9093" y="-0.1635" type="line"/>
      <point x="276.9498" y="-0.1635"/>
      <point x="241.839" y="111.956375"/>
      <point x="241.839" y="340.294625" type="curve" smooth="yes"/>
      <point x="241.839" y="932.57425" type="line"/>
      <point x="35.5183" y="932.57425" type="line"/>
      <point x="35.5183" y="1026.0" type="line"/>
      <point x="239.4195" y="1026.0" type="line"/>
      <point x="239.4195" y="1305.032375" type="line"/>
      <point x="384.552" y="1346.39925" type="line"/>
      <point x="384.552" y="1026.0" type="line"/>
      <point x="626.4004" y="1026.0" type="line"/>
      <point x="626.4004" y="932.57425" type="line"/>
      <point x="384.552" y="932.57425" type="line"/>
      <point x="384.552" y="333.857375" type="line" smooth="yes"/>
      <point x="384.552" y="145.769875"/>
      <point x="401.805" y="113.644375"/>
      <point x="634.4843" y="113.644375" type="curve"/>
    </contour>
  </outline>
</glyph>
<glyph name="w" format="1">
  <advance width="1591.5601"/>
  <unicode hex="0077"/>
  <outline>
    <contour>
      <point x="506.1095" y="0.0" type="line"/>
      <point x="762.4208" y="734.454625" type="line"/>
      <point x="809.0392" y="871.00025" type="line"/>
      <point x="854.0392" y="730.67325" type="line"/>
      <point x="1094.4804" y="0.0" type="line"/>
      <point x="1245.3599" y="0.0" type="line"/>
      <point x="1555.4004" y="1026.0" type="line"/>
      <point x="1410.9093" y="1026.0" type="line"/>
      <point x="1201.299" y="252.982625" type="line"/>
      <point x="1174.2909" y="158.305875" type="line"/>
      <point x="1144.3897" y="250.583375" type="line" smooth="yes"/>
      <point x="888.1704" y="1026.0" type="line"/>
      <point x="734.8403" y="1026.0" type="line"/>
      <point x="465.4992" y="232.15175" type="line"/>
      <point x="440.3991" y="158.8515" type="line"/>
      <point x="417.6806" y="240.769625" type="line"/>
      <point x="187.4302" y="1026.0" type="line"/>
      <point x="36.1597" y="1026.0" type="line"/>
      <point x="355.4208" y="0.0" type="line"/>
    </contour>
  </outline>
</glyph>
<glyph name="y" format="1">
  <advance width="1021.1555"/>
  <unicode hex="0079"/>
  <outline>
    <contour>
      <point x="184.2692" y="-425.256625" type="curve"/>
      <point x="126.6495" y="-326.0495" type="line"/>
      <point x="329.6184" y="-266.393625"/>
      <point x="407.5805" y="-141.23575"/>
      <point x="442.2598" y="-46.743375" type="curve" smooth="yes"/>
      <point x="460.1299" y="2.093125" type="line"/>
      <point x="52.839" y="1026.0" type="line"/>
      <point x="201.9796" y="1026.0" type="line"/>
      <point x="531.2611" y="151.25075" type="line"/>
      <point x="856.2896" y="1026.0" type="line"/>
      <point x="997.7509" y="1026.0" type="line"/>
      <point x="584.4302" y="-53.382125" type="line" smooth="yes"/>
      <point x="520.2692" y="-221.38775"/>
      <point x="396.4587" y="-379.655875"/>
    </contour>
  </outline>
</glyph>
<glyph name="z" format="1">
  <advance width="952.1082"/>
  <unicode hex="007A"/>
  <outline>
    <contour>
      <point x="93.4506" y="0.0" type="line"/>
      <point x="93.4506" y="79.332625" type="line"/>
      <point x="668.6997" y="905.355625" type="line"/>
      <point x="89.5507" y="905.355625" type="line"/>
      <point x="89.5507" y="1026.0" type="line"/>
      <point x="851.7496" y="1026.0" type="line"/>
      <point x="851.7496" y="948.667375" type="line"/>
      <point x="278.5614" y="119.644375" type="line"/>
      <point x="867.5209" y="119.644375" type="line"/>
      <point x="867.5209" y="0.0" type="line"/>
    </contour>
  </outline>
</glyph>
<glyph name="bar" format="1">
  <advance width="1314.3164"/>
  <unicode hex="007C"/>
  <outline>
    <contour>
      <point x="588.7178" y="-499.268125" type="line"/>
      <point x="588.7178" y="1553.886" type="line"/>
      <point x="725.5986" y="1553.886" type="line"/>
      <point x="725.5986" y="-499.268125" type="line"/>
    </contour>
  </outline>
</glyph>
<glyph name="braceright" format="1">
  <advance width="799.4088"/>
  <unicode hex="007D"/>
  <outline>
    <contour>
      <point x="103.2598" y="-276.95075" type="curve"/>
      <point x="103.2598" y="-166.869125" type="line"/>
      <point x="197.2002" y="-163.08775"/>
      <point x="342.1192" y="-140.515625"/>
      <point x="342.1192" y="-18.98525" type="curve" smooth="yes"/>
      <point x="342.1192" y="285.769625" type="line" smooth="yes"/>
      <point x="342.1192" y="459.305875"/>
      <point x="455.1788" y="548.321125"/>
      <point x="586.7188" y="580.157625" type="curve"/>
      <point x="435.0191" y="621.21275"/>
      <point x="342.1192" y="781.055125"/>
      <point x="342.1192" y="855.13675" type="curve" smooth="yes"/>
      <point x="342.1192" y="1059.5625" type="line" smooth="yes"/>
      <point x="342.1192" y="1263.26225"/>
      <point x="241.7998" y="1327.982875"/>
      <point x="102.3897" y="1327.819375" type="curve"/>
      <point x="102.3897" y="1438.355375" type="line"/>
      <point x="247.9605" y="1428.17475"/>
      <point x="484.3897" y="1378.617875"/>
      <point x="484.3897" y="1191.142625" type="curve" smooth="yes"/>
      <point x="484.3897" y="915.34975" type="line" smooth="yes"/>
      <point x="484.3897" y="797.60075"/>
      <point x="542.1908" y="658.7755"/>
      <point x="711.2802" y="637.25075" type="curve"/>
      <point x="711.2802" y="527.42575" type="line"/>
      <point x="589.3113" y="513.46375"/>
      <point x="485.3897" y="416.032125"/>
      <point x="484.1989" y="277.507375" type="curve"/>
      <point x="484.1989" y="15.91225" type="line" smooth="yes"/>
      <point x="484.1989" y="-177.469875"/>
      <point x="315.7292" y="-276.95075"/>
    </contour>
  </outline>
</glyph>
<glyph name="asciitilde" format="1">
  <advance width="1086.2796"/>
  <unicode hex="007E"/>
  <outline>
    <contour>
      <point x="134.5802" y="396.230125" type="curve"/>
      <point x="39.6994" y="442.344125" type="line"/>
      <point x="68.5086" y="576.60075"/>
      <point x="144.6398" y="661.42575"/>
      <point x="308.3502" y="661.42575" type="curve" smooth="yes"/>
      <point x="381.0606" y="661.42575"/>
      <point x="465.3515" y="633.114"/>
      <point x="546.4205" y="603.9125" type="curve" smooth="yes"/>
      <point x="653.8902" y="563.480875"/>
      <point x="716.0525" y="536.731875"/>
      <point x="769.7616" y="536.731875" type="curve" smooth="yes"/>
      <point x="864.5925" y="536.731875"/>
      <point x="921.4396" y="623.731875"/>
      <point x="943.6304" y="714.731875" type="curve"/>
      <point x="1046.5802" y="681.655875" type="line"/>
      <point x="1011.4503" y="527.7985"/>
      <point x="921.0525" y="417.032375"/>
      <point x="767.8915" y="417.032375" type="curve" smooth="yes"/>
      <point x="708.9524" y="417.032375"/>
      <point x="628.1202" y="448.924"/>
      <point x="546.1202" y="479.579875" type="curve" smooth="yes"/>
      <point x="439.8413" y="521.465875"/>
      <point x="378.7007" y="542.56275"/>
      <point x="310.4801" y="542.56275" type="curve" smooth="yes"/>
      <point x="199.6492" y="542.56275"/>
      <point x="155.9009" y="490.066625"/>
    </contour>
  </outline>
</glyph>
<glyph name="logicalnot" format="1">
  <advance width="1468.4195"/>
  <unicode hex="00AC"/>
  <outline>
    <contour>
      <point x="1133.9501" y="241.906875" type="line"/>
      <point x="1133.9501" y="670.393625" type="line"/>
      <point x="219.609" y="670.393625" type="line"/>
      <point x="219.609" y="794.256625" type="line"/>
      <point x="1262.9608" y="794.256625" type="line"/>
      <point x="1262.9608" y="241.906875" type="line"/>
    </contour>
  </outline>
</glyph>
<glyph name="uni00AD" format="1">
  <advance width="728.0"/>
  <unicode hex="00AD"/>
  <outline>
    <contour>
      <point x="89.2504" y="1179.420125" type="line"/>
      <point x="88.0596" y="1303.880125" type="line"/>
      <point x="645.5196" y="1303.880125" type="line"/>
      <point x="646.7104" y="1179.420125" type="line"/>
    </contour>
  </outline>
</glyph>
<glyph name="registered" format="1">
  <advance width="1738.0298"/>
  <unicode hex="00AE"/>
  <outline>
    <contour>
      <point x="868.4195" y="1485.617875" type="curve" smooth="yes"/>
      <point x="450.5494" y="1485.617875"/>
      <point x="108.6793" y="1143.8365"/>
      <point x="108.6793" y="726.055125" type="curve" smooth="yes"/>
      <point x="108.6793" y="308.27375"/>
      <point x="450.5494" y="-33.344125"/>
      <point x="868.4195" y="-33.344125" type="curve" smooth="yes"/>
      <point x="1286.2896" y="-33.344125"/>
      <point x="1629.3505" y="308.27375"/>
      <point x="1629.3505" y="726.055125" type="curve" smooth="yes"/>
      <point x="1629.3505" y="1143.8365"/>
      <point x="1286.2896" y="1485.617875"/>
    </contour>
    <contour>
      <point x="869.8011" y="59.749" type="curve" smooth="yes"/>
      <point x="508.5115" y="59.749"/>
      <point x="216.8403" y="362.093125"/>
      <point x="216.8403" y="721.60075" type="curve" smooth="yes"/>
      <point x="216.8403" y="1082.56275"/>
      <point x="508.5115" y="1384.906875"/>
      <point x="869.8011" y="1384.906875" type="curve" smooth="yes"/>
      <point x="1230.0907" y="1384.906875"/>
      <point x="1521.8688" y="1082.56275"/>
      <point x="1521.8688" y="721.60075" type="curve" smooth="yes"/>
      <point x="1521.8688" y="362.093125"/>
      <point x="1230.0907" y="59.749"/>
    </contour>
    <contour>
      <point x="687.6197" y="769.420125" type="line"/>
      <point x="687.6197" y="1087.754875" type="line"/>
      <point x="808.0392" y="1087.754875" type="line" smooth="yes"/>
      <point x="1033.1895" y="1087.754875"/>
      <point x="1093.0894" y="1066.283375"/>
      <point x="1093.0894" y="925.469625" type="curve" smooth="yes"/>
      <point x="1093.0894" y="795.819375"/>
      <point x="1007.6699" y="769.420125"/>
      <point x="822.3207" y="769.420125" type="curve" smooth="yes"/>
    </contour>
    <contour>
      <point x="690.0013" y="269.093125" type="line"/>
      <point x="690.0013" y="679.0495" type="line"/>
      <point x="871.8011" y="679.0495" type="line"/>
      <point x="1077.7308" y="269.093125" type="line"/>
      <point x="1228.9012" y="269.093125" type="line"/>
      <point x="1004.7496" y="692.142625" type="line"/>
      <point x="1188.7483" y="724.19775"/>
      <point x="1233.0" y="813.781375"/>
      <point x="1233.0" y="941.251" type="curve" smooth="yes"/>
      <point x="1233.0" y="1104.85175"/>
      <point x="1117.6793" y="1196.68825"/>
      <point x="822.1989" y="1196.68825" type="curve" smooth="yes"/>
      <point x="558.8309" y="1196.68825" type="line"/>
      <point x="558.8309" y="269.093125" type="line"/>
    </contour>
  </outline>
</glyph>
<glyph name="plusminus" format="1">
  <advance width="1205.9485"/>
  <unicode hex="00B1"/>
  <outline>
    <contour>
      <point x="543.8999" y="232.22425" type="line"/>
      <point x="543.8999" y="595.781375" type="line"/>
      <point x="196.0609" y="595.781375" type="line"/>
      <point x="196.0609" y="719.42575" type="line"/>
      <point x="542.77" y="719.42575" type="line"/>
      <point x="542.77" y="1084.492375" type="line"/>
      <point x="669.7198" y="1084.492375" type="line"/>
      <point x="669.7198" y="719.42575" type="line"/>
      <point x="1005.1014" y="719.42575" type="line"/>
      <point x="1005.1014" y="595.781375" type="line"/>
      <point x="672.1704" y="595.781375" type="line"/>
      <point x="672.1704" y="232.22425" type="line"/>
    </contour>
    <contour>
      <point x="178.5805" y="0.0" type="line"/>
      <point x="178.5805" y="116.442875" type="line"/>
      <point x="1042.3599" y="116.442875" type="line"/>
      <point x="1042.3599" y="0.0" type="line"/>
    </contour>
  </outline>
</glyph>
<glyph name="threesuperior" format="1">
  <advance width="1232.5484"/>
  <unicode hex="00B3"/>
  <outline>
    <contour>
      <point x="581.3492" y="583.2205" type="curve" smooth="yes"/>
      <point x="486.3032" y="583.2205"/>
      <point x="392.402" y="616.2205"/>
      <point x="331.8364" y="680.711" type="curve"/>
      <point x="391.6456" y="771.806" type="line"/>
      <point x="441.1124" y="721.133"/>
      <point x="514.1124" y="693.479"/>
      <point x="578.0664" y="693.479" type="curve" smooth="yes"/>
      <point x="675.7836" y="693.479"/>
      <point x="748.0272" y="743.3155"/>
      <point x="748.0272" y="831.2775" type="curve" smooth="yes"/>
      <point x="748.0272" y="934.346"/>
      <point x="661.0204" y="968.8745"/>
      <point x="523.678" y="968.8745" type="curve" smooth="yes"/>
      <point x="473.5928" y="968.8745" type="line"/>
      <point x="473.5928" y="1083.768" type="line"/>
      <point x="515.9148" y="1083.768" type="line" smooth="yes"/>
      <point x="636.8296" y="1083.768"/>
      <point x="722.4548" y="1112.133"/>
      <point x="722.4548" y="1208.2015" type="curve" smooth="yes"/>
      <point x="722.4548" y="1287.673"/>
      <point x="673.8364" y="1321.8365"/>
      <point x="590.31" y="1321.8365" type="curve" smooth="yes"/>
      <point x="517.5928" y="1321.8365"/>
      <point x="444.356" y="1289.5285"/>
      <point x="391.172" y="1242.2015" type="curve"/>
      <point x="333.5536" y="1334.6045" type="line"/>
      <point x="388.2572" y="1395.095"/>
      <point x="493.1124" y="1437.73"/>
      <point x="587.1584" y="1437.73" type="curve" smooth="yes"/>
      <point x="725.632" y="1437.73"/>
      <point x="847.632" y="1353.441"/>
      <point x="847.632" y="1207.9315" type="curve" smooth="yes"/>
      <point x="847.632" y="1127.479"/>
      <point x="807.3424" y="1051.6425"/>
      <point x="687.5792" y="1026.2775" type="curve"/>
      <point x="805.0528" y="1001.422"/>
      <point x="867.1056" y="926.8935"/>
      <point x="867.1056" y="828.2775" type="curve" smooth="yes"/>
      <point x="867.1056" y="680.1825"/>
      <point x="742.3492" y="583.2205"/>
    </contour>
  </outline>
</glyph>
<glyph name="paragraph" format="1">
  <advance width="1201.2679"/>
  <unicode hex="00B6"/>
  <outline>
    <contour>
      <point x="495.0894" y="-179.1635" type="line"/>
      <point x="495.0894" y="828.032375" type="line"/>
      <point x="323.0881" y="825.1255"/>
      <point x="138.701" y="930.454375"/>
      <point x="138.701" y="1136.39925" type="curve" smooth="yes"/>
      <point x="138.701" y="1385.055125"/>
      <point x="324.8999" y="1456.1635"/>
      <point x="601.7091" y="1456.1635" type="curve" smooth="yes"/>
      <point x="1022.8105" y="1456.1635" type="line"/>
      <point x="1022.8105" y="1347.754875" type="line"/>
      <point x="934.7496" y="1347.754875" type="line"/>
      <point x="934.7496" y="-179.1635" type="line"/>
      <point x="824.8309" y="-179.1635" type="line"/>
      <point x="824.8309" y="1347.754875" type="line"/>
      <point x="604.7104" y="1347.754875" type="line"/>
      <point x="604.7104" y="-179.1635" type="line"/>
    </contour>
  </outline>
</glyph>
<glyph name="periodcentered" format="1">
  <advance width="407.8604"/>
  <unicode hex="00B7"/>
  <outline>
    <contour>
      <point x="104.6197" y="503.9505" type="line"/>
      <point x="104.6197" y="700.21275" type="line"/>
      <point x="303.2407" y="700.21275" type="line"/>
      <point x="303.2407" y="503.9505" type="line"/>
    </contour>
  </outline>
</glyph>
<glyph name="cedilla" format="1">
  <advance width="529.0"/>
  <unicode hex="00B8"/>
  <outline>
    <contour>
      <point x="65.2504" y="-363.039875" type="curve"/>
      <point x="78.0596" y="-286.089375" type="line"/>
      <point x="89.5102" y="-288.853625"/>
      <point x="170.1367" y="-313.4715"/>
      <point x="223.3126" y="-313.4715" type="curve" smooth="yes"/>
      <point x="315.9987" y="-313.4715"/>
      <point x="335.5792" y="-283.7795"/>
      <point x="335.5792" y="-242.435375" type="curve" smooth="yes"/>
      <point x="335.5792" y="-196.309875"/>
      <point x="290.5494" y="-177.051375"/>
      <point x="167.6103" y="-177.051375" type="curve"/>
      <point x="153.5792" y="-177.051375" type="line"/>
      <point x="186.9608" y="13.256625" type="line"/>
      <point x="264.5805" y="13.256625" type="line"/>
      <point x="245.3897" y="-110.614125" type="line"/>
      <point x="359.7198" y="-121.051375"/>
      <point x="457.9404" y="-138.2395"/>
      <point x="457.9404" y="-248.88975" type="curve" smooth="yes"/>
      <point x="457.9404" y="-354.7605"/>
      <point x="355.6129" y="-399.020875"/>
      <point x="232.3735" y="-399.020875" type="curve" smooth="yes"/>
      <point x="139.3518" y="-399.020875"/>
      <point x="72.9987" y="-364.84025"/>
    </contour>
  </outline>
</glyph>
<glyph name="ordmasculine" format="1">
  <advance width="868.1082"/>
  <unicode hex="00BA"/>
  <outline>
    <contour>
      <point x="438.0311" y="886.7985" type="curve" smooth="yes"/>
      <point x="577.0609" y="886.7985"/>
      <point x="661.8011" y="980.142625"/>
      <point x="661.8011" y="1126.667375" type="curve" smooth="yes"/>
      <point x="661.8011" y="1280.028625"/>
      <point x="577.0609" y="1372.69975"/>
      <point x="433.9702" y="1372.69975" type="curve" smooth="yes"/>
      <point x="295.7496" y="1372.69975"/>
      <point x="210.8795" y="1279.355625"/>
      <point x="210.8795" y="1130.830875" type="curve" smooth="yes"/>
      <point x="210.8795" y="978.306125"/>
      <point x="290.1312" y="886.7985"/>
    </contour>
    <contour>
      <point x="435.9702" y="779.3385" type="curve" smooth="yes"/>
      <point x="201.1299" y="779.3385"/>
      <point x="79.0609" y="934.720625"/>
      <point x="79.0609" y="1133.994375" type="curve" smooth="yes"/>
      <point x="79.0609" y="1329.595125"/>
      <point x="207.4506" y="1483.65025"/>
      <point x="435.6495" y="1483.65025" type="curve" smooth="yes"/>
      <point x="667.0392" y="1483.65025"/>
      <point x="788.7496" y="1329.667375"/>
      <point x="788.7496" y="1131.44875" type="curve" smooth="yes"/>
      <point x="788.7496" y="938.393625"/>
      <point x="663.6806" y="779.3385"/>
    </contour>
  </outline>
</glyph>
<glyph name="threequarters" format="1">
  <advance width="1847.692"/>
  <unicode hex="00BE"/>
  <outline>
    <contour>
      <point x="429.3314" y="601.8365" type="curve" smooth="yes"/>
      <point x="334.8808" y="601.8365"/>
      <point x="255.2692" y="634.8365"/>
      <point x="196.4898" y="699.617875" type="curve"/>
      <point x="256.0013" y="787.51325" type="line"/>
      <point x="302.4911" y="737.131125"/>
      <point x="362.69" y="708.895375"/>
      <point x="427.2394" y="708.895375" type="curve" smooth="yes"/>
      <point x="525.8497" y="708.895375"/>
      <point x="612.6806" y="758.731875"/>
      <point x="612.6806" y="847.857375" type="curve" smooth="yes"/>
      <point x="612.6806" y="954.1255"/>
      <point x="523.5899" y="987.781375"/>
      <point x="383.2705" y="987.781375" type="curve" smooth="yes"/>
      <point x="376.7211" y="987.781375"/>
      <point x="336.46" y="986.617875"/>
      <point x="336.46" y="986.617875" type="curve"/>
      <point x="336.46" y="1100.63875" type="line"/>
      <point x="375.2096" y="1100.63875" type="line" smooth="yes"/>
      <point x="499.3991" y="1100.63875"/>
      <point x="586.8105" y="1128.131125"/>
      <point x="586.8105" y="1227.39925" type="curve" smooth="yes"/>
      <point x="586.8105" y="1307.743375"/>
      <point x="525.6887" y="1341.906875"/>
      <point x="441.2692" y="1341.906875" type="curve" smooth="yes"/>
      <point x="367.6589" y="1341.906875"/>
      <point x="307.5209" y="1309.017125"/>
      <point x="256.4208" y="1261.39925" type="curve"/>
      <point x="199.1001" y="1351.47525" type="line"/>
      <point x="250.2313" y="1412.256625"/>
      <point x="341.69" y="1454.60075"/>
      <point x="435.1406" y="1454.60075" type="curve" smooth="yes"/>
      <point x="572.7211" y="1454.60075"/>
      <point x="707.8199" y="1370.31175"/>
      <point x="707.8199" y="1225.093125" type="curve" smooth="yes"/>
      <point x="707.8199" y="1143.18625"/>
      <point x="666.3395" y="1079.857375"/>
      <point x="610.8795" y="1042.857375" type="curve"/>
      <point x="675.6602" y="1006.076"/>
      <point x="726.4004" y="945.218625"/>
      <point x="726.4004" y="844.857375" type="curve" smooth="yes"/>
      <point x="726.4004" y="699.962"/>
      <point x="590.3314" y="601.8365"/>
    </contour>
    <contour>
      <point x="1143.9819" y="332.72625" type="line"/>
      <point x="1394.3311" y="332.72625" type="line"/>
      <point x="1394.3311" y="683.2625" type="line"/>
    </contour>
    <contour>
      <point x="1396.3311" y="45.213" type="line"/>
      <point x="1396.3311" y="231.81375" type="line"/>
      <point x="1015.9116" y="231.81375" type="line"/>
      <point x="1015.9116" y="317.962" type="line"/>
      <point x="1381.2323" y="838.924" type="line"/>
      <point x="1503.4325" y="838.924" type="line"/>
      <point x="1503.4325" y="332.72625" type="line"/>
      <point x="1610.5015" y="332.72625" type="line"/>
      <point x="1623.6003" y="231.81375" type="line"/>
      <point x="1501.0509" y="231.81375" type="line"/>
      <point x="1501.0509" y="45.213" type="line"/>
    </contour>
    <contour>
      <point x="423.3502" y="0.0" type="line"/>
      <point x="1333.38" y="1456.0" type="line"/>
      <point x="1465.932" y="1456.0" type="line"/>
      <point x="558.3907" y="0.0" type="line"/>
    </contour>
  </outline>
</glyph>
<glyph name="AE" format="1">
  <advance width="1962.1296"/>
  <unicode hex="00C6"/>
  <outline>
    <contour>
      <point x="30.4195" y="0.0" type="line"/>
      <point x="869.0" y="1456.0" type="line"/>
      <point x="1832.2407" y="1456.0" type="line"/>
      <point x="1832.2407" y="1330.426" type="line"/>
      <point x="1121.311" y="1330.426" type="line"/>
      <point x="1165.5397" y="812.34975" type="line"/>
      <point x="1781.6696" y="812.34975" type="line"/>
      <point x="1781.6696" y="695.393625" type="line"/>
      <point x="1171.8915" y="695.393625" type="line"/>
      <point x="1223.5018" y="122.956125" type="line"/>
      <point x="1857.0499" y="122.956125" type="line"/>
      <point x="1857.0499" y="0.0" type="line"/>
      <point x="1099.1312" y="0.0" type="line"/>
      <point x="1060.2002" y="429.73775" type="line"/>
      <point x="429.8199" y="429.73775" type="line"/>
      <point x="183.8212" y="0.0" type="line"/>
    </contour>
    <contour>
      <point x="484.7603" y="542.038" type="line"/>
      <point x="1048.2611" y="542.038" type="line"/>
      <point x="987.6508" y="1330.426" type="line"/>
      <point x="931.1095" y="1330.426" type="line"/>
    </contour>
  </outline>
</glyph>
<glyph name="Thorn" format="1">
  <advance width="1267.7185"/>
  <unicode hex="00DE"/>
  <outline>
    <contour>
      <point x="206.2896" y="0.0" type="line"/>
      <point x="206.2896" y="1456.0" type="line"/>
      <point x="357.9796" y="1456.0" type="line"/>
      <point x="357.9796" y="1213.60075" type="line"/>
      <point x="576.1001" y="1213.60075" type="line" smooth="yes"/>
      <point x="915.23" y="1213.60075"/>
      <point x="1194.7794" y="1136.27375"/>
      <point x="1194.7794" y="780.39925" type="curve" smooth="yes"/>
      <point x="1194.7794" y="478.579875"/>
      <point x="955.6103" y="349.906875"/>
      <point x="637.6103" y="349.906875" type="curve" smooth="yes"/>
      <point x="358.3612" y="349.906875" type="line"/>
      <point x="358.3612" y="0.0" type="line"/>
    </contour>
    <contour>
      <point x="358.3612" y="483.606375" type="line"/>
      <point x="639.6495" y="483.606375" type="line" smooth="yes"/>
      <point x="870.3884" y="483.606375"/>
      <point x="1033.0204" y="573.51325"/>
      <point x="1033.0204" y="777.781375" type="curve" smooth="yes"/>
      <point x="1033.0204" y="1020.61225"/>
      <point x="855.3884" y="1080.73775"/>
      <point x="590.7794" y="1080.73775" type="curve" smooth="yes"/>
      <point x="358.3612" y="1080.73775" type="line"/>
    </contour>
  </outline>
</glyph>
<glyph name="ae" format="1">
  <advance width="1801.0298"/>
  <unicode hex="00E6"/>
  <outline>
    <contour>
      <point x="438.3599" y="-29.39925" type="curve" smooth="yes"/>
      <point x="681.6699" y="-29.39925"/>
      <point x="809.839" y="98.886"/>
      <point x="884.0298" y="234.705375" type="curve"/>
      <point x="947.4195" y="94.32325"/>
      <point x="1095.3505" y="-13.11025"/>
      <point x="1250.4506" y="-21.8365" type="curve" smooth="yes"/>
      <point x="1546.54" y="-36.962"/>
      <point x="1661.0988" y="98.27375"/>
      <point x="1661.0988" y="98.27375" type="curve"/>
      <point x="1612.77" y="205.6995" type="line"/>
      <point x="1612.77" y="205.6995"/>
      <point x="1483.9297" y="73.17475"/>
      <point x="1255.069" y="98.480875" type="curve" smooth="yes"/>
      <point x="1029.3991" y="123.787"/>
      <point x="961.7415" y="293.268125"/>
      <point x="966.5805" y="466.579875" type="curve"/>
      <point x="966.5805" y="497.469625" type="line"/>
      <point x="1707.7389" y="497.469625" type="line"/>
      <point x="1707.7389" y="497.469625"/>
      <point x="1706.1895" y="530.868875"/>
      <point x="1706.1895" y="524.944875" type="curve" smooth="yes"/>
      <point x="1706.1895" y="855.431625"/>
      <point x="1540.4804" y="1068.289"/>
      <point x="1252.4493" y="1053.1635" type="curve" smooth="yes"/>
      <point x="1108.3194" y="1045.60075"/>
      <point x="969.3586" y="958.530375"/>
      <point x="901.9689" y="811.480875" type="curve"/>
      <point x="858.3194" y="968.5855"/>
      <point x="703.6401" y="1053.1635"/>
      <point x="545.8403" y="1053.1635" type="curve" smooth="yes"/>
      <point x="334.0" y="1053.1635"/>
      <point x="135.6508" y="952.420125"/>
      <point x="146.4506" y="959.1255" type="curve"/>
      <point x="191.23" y="846.792875" type="line"/>
      <point x="155.8306" y="831.655875"/>
      <point x="356.4302" y="930.119875"/>
      <point x="547.4493" y="930.119875" type="curve" smooth="yes"/>
      <point x="725.54" y="930.119875"/>
      <point x="814.471" y="800.4145"/>
      <point x="814.2802" y="602.294625" type="curve"/>
      <point x="786.8905" y="602.294625" type="line" smooth="yes"/>
      <point x="442.5293" y="602.294625"/>
      <point x="82.931" y="601.032375"/>
      <point x="82.931" y="279.2015" type="curve" smooth="yes"/>
      <point x="82.931" y="90.1635"/>
      <point x="235.1908" y="-29.39925"/>
    </contour>
    <contour>
      <point x="471.5805" y="93.6995" type="curve" smooth="yes"/>
      <point x="346.8105" y="93.6995"/>
      <point x="234.0405" y="146.9885"/>
      <point x="234.0405" y="286.8745" type="curve" smooth="yes"/>
      <point x="234.0405" y="458.924"/>
      <point x="426.6197" y="497.469625"/>
      <point x="630.4506" y="497.469625" type="curve" smooth="yes"/>
      <point x="816.9595" y="497.469625" type="line"/>
      <point x="817.8296" y="288.895375"/>
      <point x="715.701" y="93.6995"/>
    </contour>
    <contour>
      <point x="968.3897" y="603.693875" type="line"/>
      <point x="977.5507" y="770.39925"/>
      <point x="1076.1989" y="929.792875"/>
      <point x="1272.1895" y="929.792875" type="curve" smooth="yes"/>
      <point x="1471.988" y="929.792875"/>
      <point x="1555.0191" y="799.344125"/>
      <point x="1575.8892" y="622.8745" type="curve" smooth="yes"/>
      <point x="1578.08" y="603.693875" type="line"/>
    </contour>
  </outline>
</glyph>
<glyph name="eth" format="1">
  <advance width="1227.2287"/>
  <unicode hex="00F0"/>
  <outline>
    <contour>
      <point x="603.1597" y="-22.8365" type="curve" smooth="yes"/>
      <point x="929.839" y="-22.8365"/>
      <point x="1113.6103" y="276.169375"/>
      <point x="1113.6103" y="634.344125" type="curve" smooth="yes"/>
      <point x="1113.6103" y="875.015723125"/>
      <point x="1100.1713" y="1337.939"/>
      <point x="339.9932" y="1520.57425" type="curve"/>
      <point x="260.5047" y="1415.568625" type="line"/>
      <point x="229.9395365" y="1422.18299375"/>
      <point x="962.0191" y="1325.804875"/>
      <point x="954.5698" y="712.720375" type="curve" smooth="yes"/>
      <point x="952.8296" y="718.971375"/>
      <point x="951.7687" y="712.22425"/>
      <point x="951.7687" y="716.131125" type="curve"/>
      <point x="919.988" y="786.863"/>
      <point x="823.9109" y="895.27375"/>
      <point x="607.7308" y="895.27375" type="curve" smooth="yes"/>
      <point x="328.54" y="895.27375"/>
      <point x="107.7402" y="704.2395"/>
      <point x="107.7402" y="440.076" type="curve" smooth="yes"/>
      <point x="107.7402" y="174.9125"/>
      <point x="300.2896" y="-22.8365"/>
    </contour>
    <contour>
      <point x="588.1989" y="104.58925" type="curve" smooth="yes"/>
      <point x="385.5601" y="104.58925"/>
      <point x="264.1095" y="257.673"/>
      <point x="264.1095" y="438.492375" type="curve" smooth="yes"/>
      <point x="264.1095" y="618.11025"/>
      <point x="383.1095" y="770.57425"/>
      <point x="606.1597" y="770.57425" type="curve" smooth="yes"/>
      <point x="775.54" y="770.57425"/>
      <point x="941.7985" y="649.104625"/>
      <point x="941.7985" y="485.48675" type="curve" smooth="yes"/>
      <point x="941.7985" y="294.0875"/>
      <point x="861.0489" y="104.58925"/>
    </contour>
    <contour>
      <point x="552.011" y="1102.15225" type="line"/>
      <point x="927.5303" y="1460.021125" type="line"/>
      <point x="855.4694" y="1536.408875" type="line"/>
      <point x="479.9501" y="1179.7035" type="line"/>
    </contour>
  </outline>
</glyph>
<glyph name="divide" format="1">
  <advance width="1147.2012"/>
  <unicode hex="00F7"/>
  <outline>
    <contour>
      <point x="489.2313" y="30.0495" type="line"/>
      <point x="685.5397" y="30.0495" type="line"/>
      <point x="685.7305" y="225.857375" type="line"/>
      <point x="489.2313" y="225.857375" type="line"/>
    </contour>
    <contour>
      <point x="140.1001" y="493.268125" type="line"/>
      <point x="1025.6709" y="493.268125" type="line"/>
      <point x="1025.6709" y="616.967625" type="line"/>
      <point x="140.1001" y="616.967625" type="line"/>
    </contour>
    <contour>
      <point x="490.3991" y="880.48675" type="line"/>
      <point x="686.6006" y="880.48675" type="line"/>
      <point x="686.6006" y="1076.749" type="line"/>
      <point x="490.3991" y="1076.749" type="line"/>
    </contour>
  </outline>
</glyph>
<glyph name="oslash" format="1">
  <advance width="1242.1001"/>
  <unicode hex="00F8"/>
  <outline>
    <contour>
      <point x="357.0609" y="-210.1635" type="line"/>
      <point x="261.931" y="-175.344125" type="line"/>
      <point x="895.7402" y="1255.77575" type="line"/>
      <point x="993.5494" y="1218.3385" type="line"/>
    </contour>
    <component base="o"/>
  </outline>
</glyph>
<glyph name="thorn" format="1">
  <advance width="1241.908"/>
  <unicode hex="00FE"/>
  <outline>
    <contour>
      <point x="162.3505" y="-434.032375" type="line"/>
      <point x="162.3505" y="1454.27375" type="line"/>
      <point x="311.6508" y="1454.27375" type="line"/>
      <point x="312.3301" y="868.58925" type="line"/>
      <point x="402.2909" y="989.420125"/>
      <point x="521.4898" y="1051.0"/>
      <point x="673.0298" y="1051.0" type="curve" smooth="yes"/>
      <point x="996.0907" y="1051.0"/>
      <point x="1141.6103" y="813.23575"/>
      <point x="1141.6103" y="527.617875" type="curve" smooth="yes"/>
      <point x="1141.6103" y="238.8365"/>
      <point x="986.2896" y="-23.0"/>
      <point x="673.2206" y="-23.0" type="curve" smooth="yes"/>
      <point x="518.2909" y="-23.0"/>
      <point x="400.3599" y="34.579875"/>
      <point x="310.3301" y="149.9735" type="curve"/>
      <point x="310.5209" y="-434.032375" type="line"/>
    </contour>
    <contour>
      <point x="650.5792" y="93.6995" type="curve" smooth="yes"/>
      <point x="886.5698" y="93.6995"/>
      <point x="986.7904" y="295.731875"/>
      <point x="986.7904" y="521.0" type="curve" smooth="yes"/>
      <point x="986.7904" y="732.65025"/>
      <point x="904.2491" y="932.3005"/>
      <point x="655.8999" y="932.3005" type="curve" smooth="yes"/>
      <point x="396.6806" y="932.3005"/>
      <point x="310.3301" y="723.104625"/>
      <point x="310.3301" y="494.0" type="curve" smooth="yes"/>
      <point x="310.3301" y="264.114"/>
      <point x="429.7794" y="93.6995"/>
    </contour>
  </outline>
</glyph>
<glyph name="hbar" format="1">
  <advance width="1226.678"/>
  <unicode hex="0127"/>
  <outline>
    <contour>
      <point x="10.1895" y="1184.56275" type="line"/>
      <point x="8.701" y="1314.038" type="line"/>
      <point x="566.161" y="1314.038" type="line"/>
      <point x="567.6495" y="1184.56275" type="line"/>
    </contour>
    <component base="h"/>
  </outline>
</glyph>
<glyph name="dotlessi" format="1">
  <advance width="482.161"/>
  <unicode hex="0131"/>
  <outline>
    <contour>
      <point x="166.7619" y="0.0" type="line"/>
      <point x="165.2734" y="1026.0" type="line"/>
      <point x="309.0933" y="1026.0" type="line"/>
      <point x="310.5818" y="0.0" type="line"/>
    </contour>
  </outline>
</glyph>
<glyph name="lslash" format="1">
  <advance width="503.0"/>
  <unicode hex="0142"/>
  <outline>
    <contour>
      <point x="180.6699" y="0.0" type="line"/>
      <point x="180.6699" y="680.568375" type="line"/>
      <point x="-1.7402" y="580.568375" type="line"/>
      <point x="-1.7402" y="698.8515" type="line"/>
      <point x="180.8607" y="798.8515" type="line"/>
      <point x="180.8607" y="1499.65025" type="line"/>
      <point x="324.6806" y="1499.65025" type="line"/>
      <point x="324.6806" y="878.644125" type="line"/>
      <point x="513.1895" y="980.589" type="line"/>
      <point x="513.1895" y="864.25075" type="line"/>
      <point x="324.4898" y="761.632875" type="line"/>
      <point x="324.4898" y="0.0" type="line"/>
    </contour>
  </outline>
</glyph>
<glyph name="Eng" format="1">
  <advance width="1536.9796"/>
  <unicode hex="014A"/>
  <outline>
    <contour>
      <point x="516.3991" y="-324.720375" type="curve"/>
      <point x="531.4302" y="-199.967625" type="line"/>
      <point x="694.659682" y="-242.5666295"/>
      <point x="815.3834736" y="-261.391349"/>
      <point x="906.354316" y="-261.391349" type="curve" smooth="yes"/>
      <point x="1123.81152435" y="-261.391349"/>
      <point x="1171.63666062" y="-146.073224005"/>
      <point x="1191.75184905" y="25.6963744857" type="curve" smooth="yes"/>
      <point x="1192.61324037" y="37.0569118112"/>
      <point x="1193.27832762" y="16.1470165181"/>
      <point x="1194.0609" y="28.095618" type="curve"/>
      <point x="400.7603" y="1126.236" type="line"/>
      <point x="343.3612" y="1225.081875" type="line"/>
      <point x="343.3612" y="0.0" type="line"/>
      <point x="186.9391" y="0.0" type="line"/>
      <point x="186.9391" y="1456.0" type="line"/>
      <point x="364.7509" y="1456.0" type="line"/>
      <point x="1131.2193" y="368.518625" type="line"/>
      <point x="1196.7402" y="264.819125" type="line"/>
      <point x="1196.7402" y="1456.0" type="line"/>
      <point x="1350.2313" y="1456.0" type="line"/>
      <point x="1350.2313" y="167.891875" type="line" smooth="yes"/>
      <point x="1350.2313" y="-163.146125"/>
      <point x="1275.973324" y="-376.76693"/>
      <point x="908.1192156" y="-376.76693" type="curve" smooth="yes"/>
      <point x="803.8073268" y="-376.76693"/>
      <point x="674.43962" y="-360.2028465"/>
    </contour>
  </outline>
</glyph>
<glyph name="eng" format="1">
  <advance width="1265.0894"/>
  <unicode hex="014B"/>
  <outline>
    <contour>
      <point x="257.5792" y="-341.420125" type="curve"/>
      <point x="272.6103" y="-216.667375" type="line"/>
      <point x="435.839782" y="-259.2663795"/>
      <point x="556.5637644" y="-278.091099"/>
      <point x="647.534416" y="-278.091099" type="curve" smooth="yes"/>
      <point x="912.2129724" y="-278.091099"/>
      <point x="947.4007" y="-122.6355055"/>
      <point x="947.4007" y="132.137" type="curve" smooth="yes"/>
      <point x="947.4007" y="514.918125" type="line" smooth="yes"/>
      <point x="947.4007" y="759.47525"/>
      <point x="918.8202" y="931.9735"/>
      <point x="680.9608" y="931.9735" type="curve" smooth="yes"/>
      <point x="454.8808" y="931.9735"/>
      <point x="333.7807" y="736.076"/>
      <point x="332.5899" y="660.431625" type="curve"/>
      <point x="332.5899" y="0.0" type="line"/>
      <point x="188.5792" y="0.0" type="line"/>
      <point x="188.5792" y="811.618125" type="line" smooth="yes"/>
      <point x="188.5792" y="907.142625"/>
      <point x="186.0596" y="1026.0"/>
      <point x="186.0596" y="1026.0" type="curve"/>
      <point x="328.7807" y="1026.0" type="line"/>
      <point x="334.1393" y="885.39925" type="line"/>
      <point x="419.8484" y="996.454375"/>
      <point x="540.391" y="1050.8365"/>
      <point x="705.7402" y="1050.8365" type="curve" smooth="yes"/>
      <point x="1023.1192" y="1050.8365"/>
      <point x="1091.7091" y="821.830625"/>
      <point x="1091.7091" y="542.18625" type="curve" smooth="yes"/>
      <point x="1091.7091" y="143.0875" type="line" smooth="yes"/>
      <point x="1091.7091" y="-187.8715295"/>
      <point x="1017.1532332" y="-393.46668"/>
      <point x="649.2993156" y="-393.46668" type="curve" smooth="yes"/>
      <point x="544.9874268" y="-393.46668"/>
      <point x="415.61972" y="-376.9025965"/>
    </contour>
  </outline>
</glyph>
<glyph name="OE" format="1">
  <advance width="2043.3897"/>
  <unicode hex="0152"/>
  <outline>
    <contour>
      <point x="795.161" y="-22.8365" type="curve" smooth="yes"/>
      <point x="334.3923" y="-34.8365"/>
      <point x="108.6793" y="287.081875"/>
      <point x="108.6793" y="728.382125" type="curve" smooth="yes"/>
      <point x="108.6793" y="1158.51325"/>
      <point x="371.7415" y="1499.0875"/>
      <point x="835.2802" y="1483.1635" type="curve" smooth="yes"/>
      <point x="947.46" y="1477.2015"/>
      <point x="1082.069" y="1453.175"/>
      <point x="1160.9595" y="1377.093125" type="curve"/>
      <point x="1160.9595" y="1456.0" type="line"/>
      <point x="1955.6401" y="1456.0" type="line"/>
      <point x="1955.6401" y="1323.754875" type="line"/>
      <point x="1312.161" y="1323.754875" type="line"/>
      <point x="1312.161" y="812.34975" type="line"/>
      <point x="1917.4493" y="812.34975" type="line"/>
      <point x="1917.4493" y="680.268125" type="line"/>
      <point x="1311.7794" y="680.268125" type="line"/>
      <point x="1311.7794" y="132.245125" type="line"/>
      <point x="1985.8309" y="132.245125" type="line"/>
      <point x="1985.8309" y="0.0" type="line"/>
      <point x="1160.9595" y="0.0" type="line"/>
      <point x="1160.9595" y="114.667375" type="line"/>
      <point x="1054.8105" y="16.06075"/>
      <point x="938.5209" y="-19.0"/>
    </contour>
    <contour>
      <point x="806.9012" y="113.769875" type="curve" smooth="yes"/>
      <point x="945.6819" y="118.71475"/>
      <point x="1065.2909" y="161.956125"/>
      <point x="1160.9595" y="268.1255" type="curve"/>
      <point x="1160.9595" y="1225.251" type="line"/>
      <point x="1097.4791" y="1294.175"/>
      <point x="981.5792" y="1347.175"/>
      <point x="821.3194" y="1350.918375" type="curve" smooth="yes"/>
      <point x="435.3097" y="1355.606625"/>
      <point x="269.9498" y="1034.42575"/>
      <point x="269.9498" y="725.0" type="curve" smooth="yes"/>
      <point x="269.9498" y="396.251"/>
      <point x="436.0418" y="102.42575"/>
    </contour>
  </outline>
</glyph>
<glyph name="Tbar" format="1">
  <advance width="1121.0094"/>
  <unicode hex="0166"/>
  <outline>
    <contour>
      <point x="81.6398" y="603.076" type="line"/>
      <point x="81.6398" y="731.0265" type="line"/>
      <point x="1025.919" y="731.0265" type="line"/>
      <point x="1025.919" y="603.076" type="line"/>
    </contour>
    <component base="T"/>
  </outline>
</glyph>
<glyph name="tbar" format="1">
  <advance width="705.69"/>
  <unicode hex="0167"/>
  <outline>
    <contour>
      <point x="26.4898" y="634.131375" type="line"/>
      <point x="26.4898" y="766.445" type="line"/>
      <point x="658.9702" y="766.445" type="line"/>
      <point x="658.9702" y="634.131375" type="line"/>
    </contour>
    <component base="t"/>
  </outline>
</glyph>
<glyph name="florin" format="1">
  <advance width="1043.46"/>
  <unicode hex="0192"/>
  <outline>
    <contour>
      <point x="199.1299" y="-287.857375" type="curve" smooth="yes"/>
      <point x="164.5507" y="-287.857375"/>
      <point x="134.7713" y="-282.530375"/>
      <point x="96.1908" y="-272.47525" type="curve"/>
      <point x="108.1299" y="-152.213" type="line"/>
      <point x="108.1299" y="-152.213"/>
      <point x="152.4506" y="-164.830875"/>
      <point x="180.9702" y="-164.830875" type="curve" smooth="yes"/>
      <point x="290.9608" y="-164.830875"/>
      <point x="343.1597" y="-93.218625"/>
      <point x="360.8701" y="-0.081875" type="curve" smooth="yes"/>
      <point x="526.2193" y="922.06125" type="line"/>
      <point x="363.3803" y="922.06125" type="line"/>
      <point x="377.1597" y="1024.2855" type="line"/>
      <point x="543.609" y="1024.2855" type="line"/>
      <point x="564.1597" y="1138.924" type="line" smooth="yes"/>
      <point x="591.1597" y="1327.591375"/>
      <point x="661.5792" y="1480.469625"/>
      <point x="884.7104" y="1480.469625" type="curve" smooth="yes"/>
      <point x="944.3003" y="1480.469625"/>
      <point x="1023.46" y="1454.0495"/>
      <point x="1023.46" y="1454.0495" type="curve"/>
      <point x="1007.6508" y="1336.005875" type="line"/>
      <point x="1007.6508" y="1336.005875"/>
      <point x="954.2611" y="1354.842375"/>
      <point x="903.2611" y="1354.842375" type="curve" smooth="yes"/>
      <point x="770.6223" y="1354.842375"/>
      <point x="736.8808" y="1289.629375"/>
      <point x="720.621" y="1196.880375" type="curve" smooth="yes"/>
      <point x="683.7807" y="1024.2855" type="line"/>
      <point x="903.069" y="1024.2855" type="line"/>
      <point x="882.1908" y="922.06125" type="line"/>
      <point x="669.1312" y="922.06125" type="line"/>
      <point x="525.9796" y="111.175" type="line" smooth="yes"/>
      <point x="485.9106" y="-117.7755"/>
      <point x="452.4493" y="-287.857375"/>
    </contour>
  </outline>
</glyph>
<glyph name="dotlessj" format="1">
  <advance width="503.0"/>
  <unicode hex="0237"/>
  <outline>
    <contour>
      <point x="20.2368" y="-431.0875" type="curve" smooth="yes"/>
      <point x="-15.8092" y="-431.0875"/>
      <point x="-54.9012" y="-429.7415"/>
      <point x="-94.7036" y="-421.3955" type="curve"/>
      <point x="-95.8944" y="-287.715" type="line"/>
      <point x="-65.6184" y="-293.407"/>
      <point x="-39.5724" y="-296.2435"/>
      <point x="-18.1908" y="-296.2435" type="curve" smooth="yes"/>
      <point x="120.2044" y="-296.2435"/>
      <point x="183.9676" y="-196.9545"/>
      <point x="183.9676" y="25.9315" type="curve" smooth="yes"/>
      <point x="183.9676" y="1026.0" type="line"/>
      <point x="335.6116" y="1026.0" type="line"/>
      <point x="335.6116" y="107.635" type="line" smooth="yes"/>
      <point x="335.6116" y="-125.5095"/>
      <point x="309.9012" y="-431.0875"/>
    </contour>
  </outline>
</glyph>
<glyph name="circumflex" format="1">
  <advance width="699.0"/>
  <unicode hex="02C6"/>
  <outline>
    <contour>
      <point x="293.1124" y="1486.1635" type="line"/>
      <point x="72.264" y="1184.355625" type="line"/>
      <point x="172.7104" y="1184.355625" type="line"/>
      <point x="344.8092" y="1367.04575" type="line"/>
      <point x="517.5873" y="1184.355625" type="line"/>
      <point x="625.0567" y="1184.355625" type="line"/>
      <point x="405.3531" y="1486.1635" type="line"/>
    </contour>
  </outline>
</glyph>
<glyph name="dotaccent" format="1">
  <advance width="524.0"/>
  <unicode hex="02D9"/>
  <outline>
    <contour>
      <point x="190.2504" y="1307.9735" type="line"/>
      <point x="190.2504" y="1456.0" type="line"/>
      <point x="333.7496" y="1456.0" type="line"/>
      <point x="333.7496" y="1307.9735" type="line"/>
    </contour>
  </outline>
</glyph>
<glyph name="ogonek" format="1">
  <advance width="508.0"/>
  <unicode hex="02DB"/>
  <outline>
    <contour>
      <point x="54.5792" y="-212.020875" type="curve" smooth="yes"/>
      <point x="54.5792" y="-120.469625"/>
      <point x="144.6197" y="-47.924"/>
      <point x="262.1299" y="9.819375" type="curve"/>
      <point x="399.3586" y="-5.306125" type="line"/>
      <point x="268.0764382" y="-82.99449135"/>
      <point x="178.4466549" y="-130.210003375"/>
      <point x="178.4466549" y="-189.70954875" type="curve" smooth="yes"/>
      <point x="178.4466549" y="-241.240649875"/>
      <point x="239.0401959" y="-275.276729875"/>
      <point x="274.9700929" y="-275.276729875" type="curve" smooth="yes"/>
      <point x="341.3197362" y="-275.276729875"/>
      <point x="368.3037803" y="-267.321451375"/>
      <point x="431.391" y="-241.667375" type="curve"/>
      <point x="431.391" y="-350.1255" type="line"/>
      <point x="403.3705594" y="-363.949791625"/>
      <point x="323.4064783" y="-377.39334775"/>
      <point x="265.7571068" y="-377.39334775" type="curve" smooth="yes"/>
      <point x="145.5833935" y="-377.39334775"/>
      <point x="54.5792" y="-313.716470125"/>
    </contour>
  </outline>
</glyph>
<glyph name="tilde" format="1">
  <advance width="620.2096"/>
  <unicode hex="02DC"/>
  <outline>
    <contour>
      <point x="13.0988" y="1202.557125" type="line"/>
      <point x="13.0988" y="1325.507625"/>
      <point x="68.3288" y="1409.093125"/>
      <point x="176.1691" y="1409.093125" type="curve" smooth="yes"/>
      <point x="262.5899" y="1409.093125"/>
      <point x="378.9485" y="1312.711"/>
      <point x="461.1691" y="1314.27375" type="curve" smooth="yes"/>
      <point x="507.23" y="1315.218625"/>
      <point x="502.7198" y="1360.0875"/>
      <point x="513.1393" y="1409.093125" type="curve"/>
      <point x="607.1108" y="1409.093125" type="line"/>
      <point x="607.1108" y="1293.175"/>
      <point x="563.4911" y="1186.213"/>
      <point x="453.5209" y="1197.557125" type="curve" smooth="yes"/>
      <point x="379.3599" y="1205.119875"/>
      <point x="259.2909" y="1293.667375"/>
      <point x="180.8105" y="1293.667375" type="curve" smooth="yes"/>
      <point x="120.8497" y="1293.667375"/>
      <point x="109.8795" y="1255.032375"/>
      <point x="102.8795" y="1202.557125" type="curve"/>
    </contour>
  </outline>
</glyph>
<glyph name="hungarumlaut" format="1">
  <advance width="969.0"/>
  <unicode hex="02DD"/>
  <outline>
    <contour>
      <point x="196.011" y="1182.0115" type="line"/>
      <point x="413.2776" y="1458.5665" type="line"/>
      <point x="565.1746" y="1458.5665" type="line"/>
      <point x="298.7308" y="1182.0115" type="line"/>
    </contour>
    <contour>
      <point x="427.8688" y="1182.0115" type="line"/>
      <point x="632.1218" y="1458.5665" type="line"/>
      <point x="779.1798" y="1458.5665" type="line"/>
      <point x="531.0392" y="1182.0115" type="line"/>
    </contour>
  </outline>
</glyph>
<glyph name="pi" format="1">
  <advance width="1288.0"/>
  <unicode hex="03C0"/>
  <outline>
    <contour>
      <point x="1069.1597" y="-5.2015" type="curve" smooth="yes"/>
      <point x="918.2206" y="-5.2015"/>
      <point x="881.7985" y="74.344125"/>
      <point x="881.7985" y="276.56275" type="curve" smooth="yes"/>
      <point x="881.7985" y="904.77575" type="line"/>
      <point x="533.0298" y="904.77575" type="line"/>
      <point x="533.0298" y="904.77575"/>
      <point x="459.8714" y="99.480875"/>
      <point x="354.0703" y="0.0" type="curve"/>
      <point x="207.3803" y="0.0" type="line"/>
      <point x="318.9906" y="136.568375"/>
      <point x="371.9514" y="551.819375"/>
      <point x="397.9203" y="904.77575" type="curve"/>
      <point x="281.7904" y="901.77575"/>
      <point x="176.5698" y="886.73775"/>
      <point x="93.4493" y="845.230125" type="curve"/>
      <point x="76.4493" y="963.0" type="line"/>
      <point x="149.7687" y="1020.306125"/>
      <point x="253.5089" y="1026.0"/>
      <point x="440.6294" y="1026.0" type="curve" smooth="yes"/>
      <point x="1214.0" y="1026.0" type="line"/>
      <point x="1214.0" y="904.77575" type="line"/>
      <point x="1016.5494" y="904.77575" type="line"/>
      <point x="1016.5494" y="247.644375" type="line" smooth="yes"/>
      <point x="1016.5494" y="188.807875"/>
      <point x="1017.5494" y="110.6615"/>
      <point x="1111.8701" y="110.6615" type="curve" smooth="yes"/>
      <point x="1131.6793" y="110.6615"/>
      <point x="1158.3816" y="114.6615"/>
      <point x="1189.1908" y="123.6615" type="curve"/>
      <point x="1188.1908" y="103.6615"/>
      <point x="1186.1908" y="91.47525"/>
      <point x="1186.1908" y="72.63875" type="curve" smooth="yes"/>
      <point x="1186.1908" y="41.63875"/>
      <point x="1189.1908" y="39.635"/>
      <point x="1198.0" y="8.7985" type="curve"/>
      <point x="1148.6793" y="-0.2015"/>
      <point x="1106.9689" y="-5.2015"/>
    </contour>
  </outline>
</glyph>
<glyph name="endash" format="1">
  <advance width="1072.4966"/>
  <unicode hex="2013"/>
  <outline>
    <contour>
      <point x="-11.977" y="497.268125" type="line"/>
      <point x="-11.977" y="618.967625" type="line"/>
      <point x="1074.0541" y="618.967625" type="line"/>
      <point x="1074.0541" y="497.268125" type="line"/>
    </contour>
  </outline>
</glyph>
<glyph name="quotedblbase" format="1">
  <advance width="1024.0"/>
  <unicode hex="201E"/>
  <outline>
    <contour>
      <point x="200.9203" y="-241.906875" type="line"/>
      <point x="304.6686" y="187.26225" type="line"/>
      <point x="463.4506" y="187.26225" type="line"/>
      <point x="312.8701" y="-241.906875" type="line"/>
    </contour>
    <contour>
      <point x="549.6699" y="-241.906875" type="line"/>
      <point x="651.7389" y="187.26225" type="line"/>
      <point x="812.0094" y="187.26225" type="line"/>
      <point x="661.6806" y="-241.906875" type="line"/>
    </contour>
  </outline>
</glyph>
<glyph name="dagger" format="1">
  <advance width="1022.0"/>
  <unicode hex="2020"/>
  <outline>
    <contour>
      <point x="443.2504" y="114.72625" type="line"/>
      <point x="443.2504" y="949.754875" type="line"/>
      <point x="117.2504" y="949.754875" type="line"/>
      <point x="117.2504" y="1066.617875" type="line"/>
      <point x="443.2504" y="1066.617875" type="line"/>
      <point x="443.2504" y="1458.032375" type="line"/>
      <point x="571.0311" y="1458.032375" type="line"/>
      <point x="571.0311" y="1066.617875" type="line"/>
      <point x="919.0" y="1066.617875" type="line"/>
      <point x="919.0" y="949.754875" type="line"/>
      <point x="553.1691" y="949.754875" type="line"/>
      <point x="553.1691" y="114.72625" type="line"/>
    </contour>
  </outline>
</glyph>
<glyph name="daggerdbl" format="1">
  <advance width="1028.989"/>
  <unicode hex="2021"/>
  <outline>
    <contour>
      <point x="453.9093" y="-29.38775" type="line"/>
      <point x="453.9093" y="463.606625" type="line"/>
      <point x="114.1001" y="463.606625" type="line"/>
      <point x="114.1001" y="555.924" type="line"/>
      <point x="453.9093" y="555.924" type="line"/>
      <point x="453.9093" y="965.355625" type="line"/>
      <point x="120.7794" y="965.355625" type="line"/>
      <point x="120.7794" y="1062.055125" type="line"/>
      <point x="453.9093" y="1062.055125" type="line"/>
      <point x="453.9093" y="1456.0" type="line"/>
      <point x="568.4315" y="1456.0" type="line"/>
      <point x="568.4315" y="1062.055125" type="line"/>
      <point x="914.5912" y="1062.055125" type="line"/>
      <point x="914.5912" y="965.355625" type="line"/>
      <point x="568.4315" y="965.355625" type="line"/>
      <point x="568.4315" y="555.924" type="line"/>
      <point x="908.2705" y="555.924" type="line"/>
      <point x="908.2705" y="463.606625" type="line"/>
      <point x="569.92" y="463.606625" type="line"/>
      <point x="569.92" y="-29.38775" type="line"/>
    </contour>
  </outline>
</glyph>
<glyph name="bullet" format="1">
  <advance width="990.4885"/>
  <unicode hex="2022"/>
  <outline>
    <contour>
      <point x="493.0" y="391.0875" type="curve" smooth="yes"/>
      <point x="310.839" y="391.0875"/>
      <point x="176.839" y="529.743375"/>
      <point x="176.839" y="696.7985" type="curve" smooth="yes"/>
      <point x="176.839" y="867.853625"/>
      <point x="312.931" y="1010.0"/>
      <point x="493.0" y="1010.0" type="curve" smooth="yes"/>
      <point x="672.8403" y="1010.0"/>
      <point x="813.6495" y="864.23575"/>
      <point x="813.6495" y="696.7985" type="curve" smooth="yes"/>
      <point x="813.6495" y="525.579875"/>
      <point x="675.069" y="391.0875"/>
    </contour>
  </outline>
</glyph>
<glyph name="guilsinglleft" format="1">
  <advance width="660.1393"/>
  <unicode hex="2039"/>
  <outline>
    <contour>
      <point x="405.069" y="173.962" type="line"/>
      <point x="138.0" y="541.0" type="line"/>
      <point x="409.5805" y="912.27375" type="line"/>
      <point x="548.3991" y="912.27375" type="line"/>
      <point x="294.1095" y="541.1635" type="line"/>
      <point x="540.3991" y="173.962" type="line"/>
    </contour>
  </outline>
</glyph>
<glyph name="fraction" format="1">
  <advance width="1034.1785"/>
  <unicode hex="2044"/>
  <outline>
    <contour>
      <point x="0.0" y="0.0" type="line"/>
      <point x="910.0298" y="1456.0" type="line"/>
      <point x="1033.8808" y="1456.0" type="line"/>
      <point x="126.3395" y="0.0" type="line"/>
    </contour>
  </outline>
</glyph>
<glyph name="partialdiff" format="1">
  <advance width="1166.1678"/>
  <unicode hex="2202"/>
  <outline>
    <contour>
      <point x="494.2896" y="-24.0" type="curve" smooth="yes"/>
      <point x="881.3586" y="-24.0"/>
      <point x="1075.6103" y="422.1255"/>
      <point x="1075.6103" y="858.251" type="curve" smooth="yes"/>
      <point x="1075.6103" y="1328.032375"/>
      <point x="890.6712" y="1541.431625"/>
      <point x="593.77" y="1541.431625" type="curve" smooth="yes"/>
      <point x="478.4493" y="1541.431625"/>
      <point x="369.7389" y="1504.0495"/>
      <point x="291.6699" y="1453.557125" type="curve"/>
      <point x="301.7998" y="1335.95075" type="line"/>
      <point x="384.7606" y="1394.20175"/>
      <point x="484.8296" y="1421.95075"/>
      <point x="568.839" y="1421.95075" type="curve" smooth="yes"/>
      <point x="794.7985" y="1421.95075"/>
      <point x="929.3777" y="1225.28525"/>
      <point x="926.2789" y="897.26225" type="curve" smooth="yes"/>
      <point x="926.0881" y="864.15575"/>
      <point x="924.5996" y="825.91625"/>
      <point x="924.5996" y="800.081625" type="curve"/>
      <point x="884.1192" y="877.043625"/>
      <point x="785.2491" y="1002.0"/>
      <point x="588.2865472" y="1002.0" type="curve" smooth="yes"/>
      <point x="311.2206" y="1002.0"/>
      <point x="90.701" y="747.8365"/>
      <point x="90.701" y="418.27375" type="curve" smooth="yes"/>
      <point x="90.701" y="169.673"/>
      <point x="227.77" y="-24.0"/>
    </contour>
    <contour>
      <point x="498.1597" y="95.6995" type="curve" smooth="yes"/>
      <point x="339.2909" y="95.6995"/>
      <point x="238.5209" y="222.005625"/>
      <point x="238.5209" y="415.43725" type="curve" smooth="yes"/>
      <point x="238.5209" y="667.32325"/>
      <point x="402.8403" y="883.355625"/>
      <point x="613.8999" y="883.355625" type="curve" smooth="yes"/>
      <point x="763.8905" y="883.355625"/>
      <point x="867.7295" y="777.830875"/>
      <point x="907.4088" y="657.344125" type="curve"/>
      <point x="876.7593" y="373.481125"/>
      <point x="754.6984" y="95.6995"/>
    </contour>
  </outline>
</glyph>
<glyph name="minus" format="1">
  <advance width="1148.6897"/>
  <unicode hex="2212"/>
  <outline>
    <contour>
      <point x="155.8105" y="543.918625" type="line"/>
      <point x="155.8105" y="666.3995" type="line"/>
      <point x="992.5815" y="666.3995" type="line"/>
      <point x="992.5815" y="543.918625" type="line"/>
    </contour>
  </outline>
</glyph>
<glyph name="radical" format="1">
  <advance width="1314.0"/>
  <unicode hex="221A"/>
  <outline>
    <contour>
      <point x="625.6009" y="-155.344125" type="line"/>
      <point x="286.8309" y="702.3385" type="line"/>
      <point x="287.701" y="702.502"/>
      <point x="112.0298" y="674.956375"/>
      <point x="112.0298" y="674.956375" type="curve"/>
      <point x="98.1205" y="771.655875" type="line"/>
      <point x="374.3599" y="820.63875" type="line"/>
      <point x="678.3803" y="-9.553625" type="line"/>
      <point x="1107.3398" y="1605.667375" type="line"/>
      <point x="1212.6793" y="1605.667375" type="line"/>
      <point x="742.9012" y="-155.344125" type="line"/>
    </contour>
  </outline>
</glyph>
<glyph name="integral" format="1">
  <advance width="702.4004"/>
  <unicode hex="222B"/>
  <outline>
    <contour>
      <point x="135.5899" y="-293.530375" type="curve" smooth="yes"/>
      <point x="56.299" y="-293.530375"/>
      <point x="8.7794" y="-273.63875"/>
      <point x="8.7794" y="-273.63875" type="curve"/>
      <point x="8.7794" y="-158.0495" type="line"/>
      <point x="8.7794" y="-158.0495"/>
      <point x="58.0094" y="-172.886"/>
      <point x="107.5899" y="-172.886" type="curve" smooth="yes"/>
      <point x="256.4506" y="-172.886"/>
      <point x="284.0609" y="-92.68825"/>
      <point x="284.0609" y="55.962" type="curve" smooth="yes"/>
      <point x="284.0609" y="1209.667375" type="line" smooth="yes"/>
      <point x="284.0609" y="1424.7225"/>
      <point x="342.9093" y="1583.65025"/>
      <point x="569.23" y="1583.65025" type="curve" smooth="yes"/>
      <point x="653.4898" y="1583.65025"/>
      <point x="685.2394" y="1563.886"/>
      <point x="685.2394" y="1563.886" type="curve"/>
      <point x="685.2394" y="1450.023" type="line"/>
      <point x="685.2394" y="1450.023"/>
      <point x="650.4289" y="1463.169375"/>
      <point x="594.6197" y="1463.169375" type="curve" smooth="yes"/>
      <point x="446.8199" y="1463.169375"/>
      <point x="426.2015" y="1383.099"/>
      <point x="426.2015" y="1234.44875" type="curve" smooth="yes"/>
      <point x="426.2015" y="80.906875" type="line" smooth="yes"/>
      <point x="426.2015" y="-134.14825"/>
      <point x="361.529" y="-293.530375"/>
    </contour>
  </outline>
</glyph>
<glyph name="notequal" format="1">
  <advance width="1343.299"/>
  <unicode hex="2260"/>
  <outline>
    <contour>
      <point x="450.2002" y="48.344125" type="line"/>
      <point x="346.5792" y="63.382125" type="line"/>
      <point x="478.9297" y="330.469625" type="line"/>
      <point x="166.5494" y="330.469625" type="line"/>
      <point x="166.5494" y="435.169125" type="line"/>
      <point x="530.931" y="435.169125" type="line"/>
      <point x="690.8986" y="740.3385" type="line"/>
      <point x="166.5494" y="740.3385" type="line"/>
      <point x="166.5494" y="846.038" type="line"/>
      <point x="739.0907" y="846.038" type="line"/>
      <point x="877.5102" y="1123.1635" type="line"/>
      <point x="983.2611" y="1107.962" type="line"/>
      <point x="853.2692" y="846.038" type="line"/>
      <point x="1176.7496" y="846.038" type="line"/>
      <point x="1176.7496" y="740.3385" type="line"/>
      <point x="803.1001" y="740.3385" type="line"/>
      <point x="643.1095" y="435.169125" type="line"/>
      <point x="1176.7496" y="435.169125" type="line"/>
      <point x="1176.7496" y="330.469625" type="line"/>
      <point x="592.6197" y="330.469625" type="line"/>
    </contour>
  </outline>
</glyph>
<glyph name="lessequal" format="1">
  <advance width="1349.8092"/>
  <unicode hex="2264"/>
  <outline>
    <contour>
      <point x="1101.7496" y="183.480875" type="line"/>
      <point x="245.6294" y="645.30025" type="line"/>
      <point x="245.6294" y="728.37625" type="line"/>
      <point x="1106.9404" y="1140.857125" type="line"/>
      <point x="1106.9404" y="1003.556875" type="line"/>
      <point x="414.5196" y="680.7755" type="line"/>
      <point x="1101.7496" y="319.108125" type="line"/>
    </contour>
    <contour>
      <point x="212.5387" y="0.0" type="line"/>
      <point x="212.5387" y="107.644375" type="line"/>
      <point x="1124.6197" y="107.644375" type="line"/>
      <point x="1124.6197" y="0.0" type="line"/>
    </contour>
  </outline>
</glyph>
<glyph name="greaterequal" format="1">
  <advance width="1349.8092"/>
  <unicode hex="2265"/>
  <outline>
    <contour>
      <point x="248.5604" y="0.0" type="line"/>
      <point x="248.5604" y="107.644375" type="line"/>
      <point x="1160.9391" y="107.644375" type="line"/>
      <point x="1160.9391" y="0.0" type="line"/>
    </contour>
    <contour>
      <point x="266.1098" y="1141.020625" type="line"/>
      <point x="1122.23" y="679.20125" type="line"/>
      <point x="1122.23" y="596.12525" type="line"/>
      <point x="260.919" y="183.644375" type="line"/>
      <point x="260.919" y="320.944625" type="line"/>
      <point x="953.3398" y="643.726" type="line"/>
      <point x="266.1098" y="1005.393375" type="line"/>
    </contour>
  </outline>
</glyph>
<glyph name="fi" format="1">
  <advance width="1205.7428"/>
  <unicode hex="FB01"/>
  <outline>
    <contour>
      <point x="247.092" y="0.0" type="line"/>
      <point x="247.092" y="927.3385" type="line"/>
      <point x="67.6184" y="927.3385" type="line"/>
      <point x="67.6184" y="1026.0" type="line"/>
      <point x="247.092" y="1026.0" type="line"/>
      <point x="247.092" y="1135.829" type="line" smooth="yes"/>
      <point x="247.092" y="1381.1065"/>
      <point x="295.1908" y="1493.308"/>
      <point x="619.6968" y="1493.308" type="curve" smooth="yes"/>
      <point x="664.552" y="1493.308" type="line"/>
      <point x="666.0784" y="1374.3005" type="line"/>
      <point x="415.3544" y="1374.3005"/>
      <point x="397.5452" y="1317.0495"/>
      <point x="397.5452" y="1161.6085" type="curve" smooth="yes"/>
      <point x="397.5452" y="1026.0" type="line"/>
      <point x="910.092" y="1026.0" type="line"/>
      <point x="910.092" y="927.3385" type="line"/>
      <point x="397.5452" y="927.3385" type="line"/>
      <point x="397.5452" y="0.0" type="line"/>
    </contour>
    <component base="i" xOffset="688.6508"/>
  </outline>
</glyph>
<glyph name="fl" format="1">
  <advance width="1240.8024"/>
  <unicode hex="FB02"/>
  <outline>
    <contour>
      <point x="421.3612" y="927.3385" type="line"/>
      <point x="421.3612" y="0.0" type="line"/>
      <point x="270.908" y="0.0" type="line"/>
      <point x="270.908" y="927.3385" type="line"/>
      <point x="67.6184" y="927.3385" type="line"/>
      <point x="67.6184" y="1026.0" type="line"/>
      <point x="270.908" y="1026.0" type="line"/>
      <point x="270.908" y="1123.9735" type="line" smooth="yes"/>
      <point x="270.908" y="1372.905"/>
      <point x="363.3884" y="1466.4905"/>
      <point x="753.8756" y="1466.4905" type="curve" smooth="yes"/>
      <point x="1057.3152" y="1466.4905" type="line"/>
      <point x="1057.3152" y="0.0" type="line"/>
      <point x="906.6712" y="0.0" type="line"/>
      <point x="906.6712" y="1349.6465" type="line"/>
      <point x="745.4804" y="1349.6465" type="line" smooth="yes"/>
      <point x="465.9336" y="1349.6465"/>
      <point x="421.3612" y="1302.3195"/>
      <point x="421.3612" y="1142.7225" type="curve" smooth="yes"/>
      <point x="421.3612" y="1026.0" type="line"/>
      <point x="673.2232" y="1026.0" type="line"/>
      <point x="673.2232" y="927.3385" type="line"/>
    </contour>
  </outline>
</glyph>
<glyph name="commaaccent" format="1">
  <advance width="540.0"/>
  <outline>
    <contour>
      <point x="135.4791" y="-581.9885" type="line"/>
      <point x="240.9297" y="-128.655875" type="line"/>
      <point x="404.5209" y="-128.655875" type="line"/>
      <point x="246.1691" y="-581.9885" type="line"/>
    </contour>
  </outline>
</glyph>
<glyph name="euro" format="1">
  <advance width="1190.0"/>
  <outline>
    <contour>
      <point x="756.5332" y="-21.0" type="curve" smooth="yes"/>
      <point x="429.724" y="-21.0"/>
      <point x="258.9608" y="198.1255"/>
      <point x="219.4872" y="521.3955" type="curve"/>
      <point x="84.4872" y="521.3955" type="line"/>
      <point x="103.3424" y="656.943" type="line"/>
      <point x="207.4412" y="656.943" type="line"/>
      <point x="207.601327329" y="687.587953416"/>
      <point x="204.864949019" y="721.919715687"/>
      <point x="206.2504" y="783.673" type="curve"/>
      <point x="81.8688" y="783.673" type="line"/>
      <point x="102.3424" y="920.8555" type="line"/>
      <point x="224.2964" y="920.8555" type="line"/>
      <point x="279.1516" y="1230.7985"/>
      <point x="472.3424" y="1452.4145"/>
      <point x="789.4872" y="1452.4145" type="curve" smooth="yes"/>
      <point x="920.1516" y="1452.4145"/>
      <point x="1026.0528" y="1415.232"/>
      <point x="1107.3356" y="1337.3575" type="curve"/>
      <point x="1073.2436" y="1144.4335" type="line"/>
      <point x="1006.0136" y="1258.137"/>
      <point x="902.7308" y="1316.2435"/>
      <point x="781.5332" y="1316.2435" type="curve" smooth="yes"/>
      <point x="557.5656" y="1316.2435"/>
      <point x="432.2232" y="1136.3955"/>
      <point x="386.7956" y="920.8555" type="curve"/>
      <point x="986.8092" y="920.8555" type="line"/>
      <point x="968.1448" y="783.673" type="line"/>
      <point x="370.5128" y="783.673" type="line"/>
      <point x="367.394175" y="737.170128472"/>
      <point x="372.968180037" y="656.72786848"/>
      <point x="371.1312" y="656.943" type="curve"/>
      <point x="952.4276" y="656.943" type="line"/>
      <point x="934.3816" y="521.3955" type="line"/>
      <point x="384.7496" y="521.3955" type="line"/>
      <point x="415.7496" y="281.8935"/>
      <point x="528.23" y="115.6805"/>
      <point x="772.9148" y="115.6805" type="curve" smooth="yes"/>
      <point x="876.54" y="115.6805"/>
      <point x="982.586" y="158.46"/>
      <point x="1085.7172" y="251.692" type="curve"/>
      <point x="1084.5264" y="73.2015" type="line"/>
      <point x="987.2436" y="7.1825"/>
      <point x="876.3884" y="-21.0"/>
    </contour>
  </outline>
</glyph>
